<svg width="67" height="67" viewBox="0 0 67 67" fill="none" xmlns="http://www.w3.org/2000/svg">
<g clip-path="url(#clip0_0_2967)">
<path d="M60.4363 25.3235L60.4362 25.3236L60.4397 25.3254C60.8879 25.5599 61.4094 25.6121 61.8951 25.4711C62.3809 25.3302 62.7935 25.007 63.0466 24.5691C63.2997 24.1312 63.3739 23.6124 63.2535 23.1211C63.1332 22.6298 62.8277 22.204 62.4008 21.9327L62.4009 21.9326L62.397 21.9304L33.5498 5.34787L33.5 5.31923L33.4501 5.34787L4.60459 21.9294C4.37097 22.0519 4.16445 22.2203 3.99742 22.4245C3.82996 22.6293 3.70565 22.8657 3.63195 23.1198C3.55826 23.3738 3.53671 23.6401 3.56861 23.9026C3.6005 24.1652 3.68518 24.4186 3.81754 24.6476C3.9499 24.8766 4.12722 25.0764 4.33882 25.2351C4.55042 25.3938 4.79194 25.508 5.04884 25.571C5.30574 25.6339 5.57271 25.6442 5.8337 25.6013C6.09393 25.5585 6.34285 25.4636 6.56556 25.3224L33.5 9.84906L60.4363 25.3235Z" fill="#0538BC" stroke="#0538BC" stroke-width="0.2"/>
<path d="M14.7888 46.4279H9.30545C8.78533 46.4279 8.28651 46.6345 7.91873 47.0023C7.55095 47.3701 7.34434 47.8689 7.34434 48.389C7.34434 48.9091 7.55095 49.408 7.91873 49.7757C8.28651 50.1435 8.78533 50.3501 9.30545 50.3501H57.6943C58.2145 50.3501 58.7133 50.1435 59.0811 49.7757C59.4488 49.408 59.6554 48.9091 59.6554 48.389C59.6554 47.8689 59.4488 47.3701 59.0811 47.0023C58.7133 46.6345 58.2145 46.4279 57.6943 46.4279H52.211V32.8115V32.7115H52.111H48.3888H48.2888V32.8115V46.4279H35.461V32.8115V32.7115H35.361H31.6388H31.5388V32.8115V46.4279H18.711V32.8115V32.7115H18.611H14.8888H14.7888V32.8115V46.4279Z" fill="#0538BC" stroke="#0538BC" stroke-width="0.2"/>
<path d="M9.3418 25.9557H9.2418V26.0557V29.7779V29.8779H9.3418H57.7307H57.8307V29.7779V26.0557V25.9557H57.7307H9.3418Z" fill="#0538BC" stroke="#0538BC" stroke-width="0.2"/>
<path d="M61.4171 53.8722H5.58377C5.06365 53.8722 4.56483 54.0788 4.19705 54.4466C3.82927 54.8143 3.62266 55.3132 3.62266 55.8333C3.62266 56.3534 3.82927 56.8522 4.19705 57.22C4.56483 57.5878 5.06365 57.7944 5.58377 57.7944H61.4171C61.9372 57.7944 62.436 57.5878 62.8038 57.22C63.1716 56.8522 63.3782 56.3534 63.3782 55.8333C63.3782 55.3132 63.1716 54.8143 62.8038 54.4466C62.436 54.0788 61.9372 53.8722 61.4171 53.8722Z" fill="#0538BC" stroke="#0538BC" stroke-width="0.2"/>
<path d="M41.1736 21.6383L41.1967 21.6516H41.2233H47.1975H47.5719L47.2473 21.4649L34.7594 14.2811C34.5179 14.1416 34.2439 14.0682 33.965 14.0682C33.6861 14.0682 33.4121 14.1416 33.1706 14.281C33.1706 14.2811 33.1706 14.2811 33.1705 14.2811L20.6641 21.4649L20.339 21.6516H20.7139H26.688H26.7147L26.7378 21.6383L33.9464 17.498L41.1736 21.6383Z" fill="#0538BC" stroke="#0538BC" stroke-width="0.2"/>
</g>
<defs>
<clipPath id="clip0_0_2967">
<rect width="67" height="67" fill="white"/>
</clipPath>
</defs>
</svg>
