<svg width="665" height="549" viewBox="0 0 665 549" fill="none" xmlns="http://www.w3.org/2000/svg">
<g clip-path="url(#clip0_0_3094)">
<path d="M49.3301 286.291C79.0008 319.91 116.556 332.973 135.076 373.822C147.772 401.822 141.816 434.972 151.196 464.251C164.052 504.384 206.292 531.344 248.398 531.489C290.504 531.634 330.641 507.756 355.626 473.833C363.82 462.708 370.922 450.199 382.409 442.529C398.861 431.543 420.201 432.955 439.898 431.198C488.466 426.867 534.492 399.569 561.611 359.008C561.611 359.008 631.964 275.92 582.161 157.054C567.684 122.504 544.218 90.7732 511.859 71.9447C479.5 53.1148 423.191 52.6671 389.872 69.7395C354.449 87.8904 330.898 127.674 292.071 136.412C269.566 141.477 246.33 134.895 223.667 130.59C191.876 124.549 159.47 120.797 127.37 124.877C89.5884 129.68 51.4792 148.641 33.8552 191.273C27.6827 206.204 25.6082 222.582 28.0687 238.553C30.2734 252.874 35.8493 271.015 49.3301 286.291Z" fill="#E1E1FF"/>
<path d="M341.297 40.7878C333.13 30.5256 320.407 24.924 307.683 21.7677C290.128 17.4129 271.25 17.0778 254.221 23.1754C237.192 29.273 222.255 42.2716 215.975 59.249C209.696 76.2263 213.157 96.9819 226.186 109.539C233.487 116.574 243.74 120.358 253.82 120.331C259.798 120.969 265.905 120.295 271.523 118.13C284.024 113.31 293.211 102.368 305.199 96.382C318.229 89.8775 334.974 88.8386 343.791 77.2433C351.73 66.8026 349.463 51.05 341.297 40.7878Z" fill="#EBEBFF"/>
<path d="M106.414 404.468C105.053 401.677 103.786 398.853 102.959 395.865C100.311 386.295 102.235 375.38 97.1009 366.883C90.6536 356.211 74.7722 354.263 63.9683 360.475C53.1643 366.688 46.986 378.842 44.3516 391.032C42.7288 398.538 42.2566 406.534 44.8252 413.77C47.8135 422.185 54.6102 428.725 62.0209 433.697C70.2606 439.226 79.8833 443.283 89.7983 442.947C94.2135 442.798 98.6637 441.626 102.591 439.573C105.687 438.226 108.436 436.146 110.327 433.447C111.702 431.817 112.861 430.008 113.709 428.012C117.231 419.717 114.054 408.801 106.414 404.468Z" fill="#E4E4FF"/>
<path d="M625.266 181.101H538.035V307.367H625.266V181.101Z" fill="#D5CBFB"/>
<path d="M615.85 199.62H547.45V202.415H615.85V199.62Z" fill="#7B70EE"/>
<path d="M615.85 212.449H547.45V215.244H615.85V212.449Z" fill="#7B70EE"/>
<path d="M615.85 225.279H547.45V228.074H615.85V225.279Z" fill="#7B70EE"/>
<path d="M615.85 238.108H547.45V240.903H615.85V238.108Z" fill="#7B70EE"/>
<path d="M615.85 250.937H547.45V253.732H615.85V250.937Z" fill="#7B70EE"/>
<path d="M615.85 263.767H547.45V266.562H615.85V263.767Z" fill="#7B70EE"/>
<path d="M615.851 294.931H547.451V295.701H615.851V294.931Z" fill="white"/>
<path d="M556.796 282.806C560.29 283.395 563.838 283.57 567.37 283.263C570.633 282.979 574.098 282.429 577.142 281.173C579.309 280.279 581.67 277.83 580.149 275.354C578.81 273.172 575.449 272.95 573.222 273.479C570.626 274.098 568.316 275.8 566.737 277.925C565.157 280.051 564.057 283.117 565.927 285.417C567.655 287.542 570.819 287.968 573.367 287.613C574.798 287.414 576.193 286.94 577.446 286.214C578.031 285.875 578.573 285.474 579.092 285.042C579.771 284.48 580.483 283.734 581.399 283.607C582.5 283.453 582.753 284.287 583.453 284.887C583.94 285.304 584.566 285.445 585.193 285.382C585.966 285.303 586.67 284.969 587.386 284.693C588.288 284.343 589.18 284.213 590.146 284.235C594.307 284.334 598.501 284.887 602.649 285.225C603.389 285.285 603.386 284.593 602.649 284.533C599.561 284.281 596.472 283.569 593.384 283.319C591.975 283.204 590.526 282.988 589.111 283.103C587.781 283.213 586.712 283.904 585.439 284.177C584.007 284.483 583.81 283.043 582.664 282.602C581.646 282.211 580.526 282.54 579.657 283.122C578.595 283.832 577.731 284.757 576.597 285.37C575.325 286.056 573.889 286.469 572.446 286.557C570.107 286.699 566.625 285.985 566.132 283.215C565.682 280.688 567.777 278.078 569.601 276.587C571.475 275.055 574.005 274.041 576.448 274.489C577.61 274.703 579.127 275.25 579.412 276.555C579.744 278.078 578.399 279.308 577.179 279.906C575.753 280.606 574.105 280.963 572.565 281.306C570.854 281.688 569.122 281.958 567.375 282.11C563.949 282.407 560.497 282.574 557.107 282.002C556.376 281.879 556.063 282.683 556.796 282.806Z" fill="#7B70EE"/>
<path d="M654.423 257.744L639.089 249.417L643.596 241.101C644.571 239.301 646.82 238.634 648.618 239.61L657.441 244.402C659.239 245.378 659.906 247.629 658.931 249.428L654.423 257.744Z" fill="#D5CBFB"/>
<path d="M653.341 259.677L638.007 251.348L593.715 333.052L609.049 341.38L653.341 259.677Z" fill="#2525AD"/>
<path d="M648.404 257.004L642.928 254.03L598.635 335.734L604.112 338.708L648.404 257.004Z" fill="#1C1C84"/>
<path d="M657.154 256.996L638.169 246.685L636.178 250.358L655.163 260.669L657.154 256.996Z" fill="#F0C64B"/>
<path d="M609.062 341.418L593.727 333.09L592.172 347.015L598.246 350.315L609.062 341.418Z" fill="#D5CBFB"/>
<path d="M598.246 350.315L592.172 347.015L591.151 356.149L598.246 350.315Z" fill="#2525AD"/>
<path d="M497.083 403.758H187.526C184.621 403.758 182.244 401.379 182.244 398.471V199.665C182.244 196.758 184.621 194.378 187.526 194.378H497.083C499.988 194.378 502.366 196.758 502.366 199.665V398.471C502.366 401.379 499.988 403.758 497.083 403.758Z" fill="#7B70EE"/>
<path d="M494.441 209.604H190.167V383.453H494.441V209.604Z" fill="#D5CBFB"/>
<path d="M344.218 201.367C344.218 202.425 343.361 203.281 342.304 203.281C341.247 203.281 340.392 202.424 340.392 201.367C340.392 200.309 341.249 199.452 342.304 199.452C343.361 199.453 344.218 200.309 344.218 201.367Z" fill="#D5CBFB"/>
<path d="M545.45 472.076L506.129 409.437C503.91 405.902 500.031 403.757 495.86 403.757H335.45H326.576H188.749C184.578 403.757 180.699 405.902 178.48 409.437L139.159 472.076C138.046 473.849 137.65 475.956 137.998 477.992H546.61C546.958 475.958 546.563 473.849 545.45 472.076Z" fill="#D5CBFB"/>
<path d="M137.999 477.993C138.071 478.413 138.163 478.83 138.299 479.24L138.918 481.101C140.068 484.55 143.291 486.875 146.923 486.875H326.575H335.45H537.685C541.317 486.875 544.542 484.549 545.689 481.101L546.309 479.24C546.445 478.83 546.537 478.412 546.609 477.993H137.999Z" fill="#7B70EE"/>
<path d="M203.546 434.669L205.462 430.453H195.987L193.959 434.669H203.546Z" fill="#7B70EE"/>
<path d="M220.236 422.667L221.176 420.468L222.037 418.45H212.869L210.954 422.667H220.236Z" fill="#7B70EE"/>
<path d="M207.418 430.453L205.505 434.669H215.113L216.913 430.453H207.418Z" fill="#7B70EE"/>
<path d="M206.271 428.668L208.186 424.451H198.874L196.844 428.668H206.271Z" fill="#7B70EE"/>
<path d="M399.185 418.449L400.245 422.667H408.393L407.22 418.449H399.185Z" fill="#7B70EE"/>
<path d="M252.996 430.453L251.71 434.669H261.397L262.628 430.453H252.996Z" fill="#7B70EE"/>
<path d="M241.667 430.453L240.151 434.669H249.846L251.132 430.453H241.667Z" fill="#7B70EE"/>
<path d="M230.287 430.453L228.599 434.669H238.257L239.773 430.453H230.287Z" fill="#7B70EE"/>
<path d="M218.852 430.453L217.053 434.669H226.678L228.365 430.453H218.852Z" fill="#7B70EE"/>
<path d="M409.071 418.449L410.244 422.667H417.856L416.624 418.449H409.071Z" fill="#7B70EE"/>
<path d="M285.758 424.451L284.698 428.668H292.359L293.305 424.451H285.758Z" fill="#7B70EE"/>
<path d="M368.873 418.449L369.589 422.667H378.43L377.598 418.449H368.873Z" fill="#7B70EE"/>
<path d="M284.368 422.667L285.428 418.45H277.393L276.219 422.667H284.368Z" fill="#7B70EE"/>
<path d="M274.369 422.667L275.543 418.45H267.99L266.758 422.667H274.369Z" fill="#7B70EE"/>
<path d="M293.706 422.667L294.652 418.449H287.266L286.207 422.667H293.706Z" fill="#7B70EE"/>
<path d="M418.482 418.449L419.713 422.667H429.239L427.95 418.449H418.482Z" fill="#7B70EE"/>
<path d="M245.981 418.45L244.464 422.667H253.51L254.175 420.491L254.798 418.45H245.981Z" fill="#7B70EE"/>
<path d="M242.571 422.667L244.087 418.449H235.087L233.401 422.667H242.571Z" fill="#7B70EE"/>
<path d="M223.979 418.449L222.178 422.667H231.48L232.357 420.472L233.166 418.449H223.979Z" fill="#7B70EE"/>
<path d="M389.961 418.449L390.906 422.667H398.406L397.346 418.449H389.961Z" fill="#7B70EE"/>
<path d="M379.415 418.449L380.247 422.667H389.079L388.134 418.449H379.415Z" fill="#7B70EE"/>
<path d="M264.9 422.667L266.132 418.449H256.663L255.375 422.667H264.9Z" fill="#7B70EE"/>
<path d="M276.039 416.666L277.133 412.74H269.656L268.509 416.666H276.039Z" fill="#7B70EE"/>
<path d="M266.653 416.666L267.799 412.74H258.409L257.209 416.666H266.653Z" fill="#7B70EE"/>
<path d="M358.462 418.449L358.953 422.667H367.78L367.064 418.449H358.462Z" fill="#7B70EE"/>
<path d="M305.549 416.666L306.323 412.74H297.761L296.881 416.666H305.549Z" fill="#7B70EE"/>
<path d="M295.052 416.666L295.933 412.74H288.701L287.715 416.666H295.052Z" fill="#7B70EE"/>
<path d="M285.877 416.666L286.862 412.74H278.983L277.89 416.666H285.877Z" fill="#7B70EE"/>
<path d="M462.575 418.449L464.374 422.667H473.658L471.743 418.449H462.575Z" fill="#7B70EE"/>
<path d="M222.803 416.666L224.479 412.74H215.463L213.681 416.666H222.803Z" fill="#7B70EE"/>
<path d="M233.88 416.666L235.451 412.74H226.417L224.74 416.666H233.88Z" fill="#7B70EE"/>
<path d="M255.343 416.666L256.542 412.74H248.034L246.623 416.666H255.343Z" fill="#7B70EE"/>
<path d="M473.702 418.449L475.617 422.667H484.88L482.851 418.449H473.702Z" fill="#7B70EE"/>
<path d="M244.728 416.666L246.139 412.74H237.372L235.802 416.666H244.728Z" fill="#7B70EE"/>
<path d="M429.814 418.449L431.103 422.667H440.149L438.632 418.449H429.814Z" fill="#7B70EE"/>
<path d="M304.645 430.453L303.813 434.669H312.979L313.696 430.453H304.645Z" fill="#7B70EE"/>
<path d="M264.484 430.453L263.253 434.669H271.025L272.199 430.453H264.484Z" fill="#7B70EE"/>
<path d="M293.787 430.453L292.841 434.669H301.996L302.828 430.453H293.787Z" fill="#7B70EE"/>
<path d="M274.053 430.453L272.879 434.669H281.351L282.411 430.453H274.053Z" fill="#7B70EE"/>
<path d="M284.25 430.453L283.19 434.669H291.013L291.959 430.453H284.25Z" fill="#7B70EE"/>
<path d="M317.549 418.45L316.831 422.667H325.66L326.15 418.45H317.549Z" fill="#7B70EE"/>
<path d="M316.045 416.666L316.713 412.74H308.142L307.367 416.666H316.045Z" fill="#7B70EE"/>
<path d="M305.83 424.451L304.998 428.668H314.001L314.718 424.451H305.83Z" fill="#7B70EE"/>
<path d="M451.447 418.449L453.134 422.667H462.436L460.635 418.449H451.447Z" fill="#7B70EE"/>
<path d="M324.963 428.668L325.453 424.451H316.527L315.81 428.668H324.963Z" fill="#7B70EE"/>
<path d="M440.525 418.449L442.042 422.667H451.212L449.525 418.449H440.525Z" fill="#7B70EE"/>
<path d="M208.996 422.667L210.911 418.45H201.761L199.731 422.667H208.996Z" fill="#7B70EE"/>
<path d="M411.734 434.669L410.56 430.453H402.202L403.261 434.669H411.734Z" fill="#7B70EE"/>
<path d="M275.721 424.451L274.549 428.668H282.859L283.918 424.451H275.721Z" fill="#7B70EE"/>
<path d="M427.404 416.666L426.205 412.74H416.815L417.96 416.666H427.404Z" fill="#7B70EE"/>
<path d="M448.81 416.666L447.242 412.74H438.473L439.885 416.666H448.81Z" fill="#7B70EE"/>
<path d="M437.991 416.666L436.578 412.74H428.071L429.27 416.666H437.991Z" fill="#7B70EE"/>
<path d="M387.732 416.666L386.852 412.74H378.289L379.062 416.666H387.732Z" fill="#7B70EE"/>
<path d="M377.247 416.666L376.472 412.74H367.901L368.569 416.666H377.247Z" fill="#7B70EE"/>
<path d="M459.873 416.666L458.196 412.74H449.162L450.733 416.666H459.873Z" fill="#7B70EE"/>
<path d="M406.723 416.666L405.629 412.74H397.749L398.736 416.666H406.723Z" fill="#7B70EE"/>
<path d="M396.898 416.666L395.911 412.74H388.68L389.56 416.666H396.898Z" fill="#7B70EE"/>
<path d="M401.424 434.669L400.364 430.453H392.655L393.599 434.669H401.424Z" fill="#7B70EE"/>
<path d="M467.562 434.669L465.76 430.453H456.249L457.936 434.669H467.562Z" fill="#7B70EE"/>
<path d="M444.464 434.669L442.946 430.453H433.48L434.768 434.669H444.464Z" fill="#7B70EE"/>
<path d="M490.655 434.669L488.624 430.453H479.152L481.067 434.669H490.655Z" fill="#7B70EE"/>
<path d="M479.11 434.669L477.195 430.453H467.701L469.501 434.669H479.11Z" fill="#7B70EE"/>
<path d="M456.014 434.669L454.326 430.453H444.843L446.357 434.669H456.014Z" fill="#7B70EE"/>
<path d="M391.772 434.669L390.827 430.453H381.785L382.617 434.669H391.772Z" fill="#7B70EE"/>
<path d="M470.933 416.666L469.151 412.74H460.135L461.811 416.666H470.933Z" fill="#7B70EE"/>
<path d="M486.859 422.667H495.408L493.026 418.449H484.83L486.859 422.667Z" fill="#7B70EE"/>
<path d="M421.36 434.669L420.128 430.453H412.412L413.586 434.669H421.36Z" fill="#7B70EE"/>
<path d="M481.993 416.666L480.103 412.74H471.109L472.891 416.666H481.993Z" fill="#7B70EE"/>
<path d="M432.905 434.669L431.617 430.453H421.987L423.218 434.669H432.905Z" fill="#7B70EE"/>
<path d="M492.021 416.666L489.803 412.74H482.082L483.972 416.666H492.021Z" fill="#7B70EE"/>
<path d="M416.103 416.666L414.958 412.74H407.48L408.574 416.666H416.103Z" fill="#7B70EE"/>
<path d="M358.553 434.669L358.063 430.453H348.82L348.991 434.669H358.553Z" fill="#7B70EE"/>
<path d="M221.415 424.451L220.475 426.652L219.614 428.668H229.079L230.764 424.451H221.415Z" fill="#7B70EE"/>
<path d="M368.804 428.668L368.086 424.451H359.16L359.651 428.668H368.804Z" fill="#7B70EE"/>
<path d="M217.675 428.668L219.477 424.451H210.144L209.143 426.656L208.23 428.668H217.675Z" fill="#7B70EE"/>
<path d="M296.48 418.449L295.534 422.667H304.365L305.197 418.449H296.48Z" fill="#7B70EE"/>
<path d="M307.016 418.45L306.182 422.667H315.023L315.741 418.45H307.016Z" fill="#7B70EE"/>
<path d="M254.829 424.451L253.541 428.668H263.147L264.378 424.451H254.829Z" fill="#7B70EE"/>
<path d="M232.686 424.451L230.999 428.668H240.412L241.928 424.451H232.686Z" fill="#7B70EE"/>
<path d="M266.238 424.451L265.007 428.668H272.698L273.872 424.451H266.238Z" fill="#7B70EE"/>
<path d="M348.581 424.451L348.75 428.668H357.856L357.364 424.451H348.581Z" fill="#7B70EE"/>
<path d="M243.825 424.451L242.308 428.668H251.677L252.965 424.451H243.825Z" fill="#7B70EE"/>
<path d="M356.461 416.666L356.003 412.74H348.108L348.266 416.666H356.461Z" fill="#7B70EE"/>
<path d="M380.799 434.669L379.968 430.453H370.917L371.633 434.669H380.799Z" fill="#7B70EE"/>
<path d="M338.29 412.74L338.131 416.666H346.481L346.323 412.74H338.29Z" fill="#7B70EE"/>
<path d="M338.059 418.449L337.89 422.667H346.723L346.553 418.449H338.059Z" fill="#7B70EE"/>
<path d="M357.158 422.667L356.667 418.449H348.338L348.508 422.667H357.158Z" fill="#7B70EE"/>
<path d="M366.76 416.666L366.092 412.74H357.798L358.256 416.666H366.76Z" fill="#7B70EE"/>
<path d="M337.818 424.451L337.647 428.668H346.965L346.796 424.451H337.818Z" fill="#7B70EE"/>
<path d="M337.577 430.453L337.406 434.669H347.207L347.037 430.453H337.577Z" fill="#7B70EE"/>
<path d="M336.347 416.666L336.505 412.74H328.609L328.153 416.666H336.347Z" fill="#7B70EE"/>
<path d="M317.853 416.666H326.357L326.814 412.74H318.523L317.853 416.666Z" fill="#7B70EE"/>
<path d="M379.615 428.668L378.782 424.451H369.893L370.612 428.668H379.615Z" fill="#7B70EE"/>
<path d="M295.133 424.451L294.187 428.668H303.18L304.012 424.451H295.133Z" fill="#7B70EE"/>
<path d="M181.419 436.453L179.336 440.142H189.346L191.121 436.453H181.419Z" fill="#7B70EE"/>
<path d="M419.608 428.668L418.377 424.451H410.741L411.916 428.668H419.608Z" fill="#7B70EE"/>
<path d="M414.083 436.453L415.111 440.142H422.958L421.881 436.453H414.083Z" fill="#7B70EE"/>
<path d="M399.915 428.668L398.855 424.451H391.308L392.253 428.668H399.915Z" fill="#7B70EE"/>
<path d="M335.621 434.669L335.791 430.453H326.55L326.06 434.669H335.621Z" fill="#7B70EE"/>
<path d="M446.999 436.453L448.325 440.142H458.202L456.728 436.453H446.999Z" fill="#7B70EE"/>
<path d="M476.385 428.668L474.47 424.451H465.136L466.938 428.668H476.385Z" fill="#7B70EE"/>
<path d="M458.65 436.453L460.123 440.142H469.9L468.324 436.453H458.65Z" fill="#7B70EE"/>
<path d="M315.505 430.453L314.787 434.669H324.265L324.755 430.453H315.505Z" fill="#7B70EE"/>
<path d="M184.807 430.453L182.427 434.669H191.979L194.008 430.453H184.807Z" fill="#7B70EE"/>
<path d="M360.554 436.453L360.984 440.142H370.758L370.13 436.453H360.554Z" fill="#7B70EE"/>
<path d="M216.29 436.453L214.714 440.142H224.488L225.964 436.453H216.29Z" fill="#7B70EE"/>
<path d="M335.549 436.453H325.852L325.424 440.142H335.4L335.549 436.453Z" fill="#7B70EE"/>
<path d="M464.997 428.668L463.199 424.451H453.848L455.534 428.668H464.997Z" fill="#7B70EE"/>
<path d="M193.101 436.453L191.325 440.142H201.062L202.737 436.453H193.101Z" fill="#7B70EE"/>
<path d="M380.599 424.451L381.433 428.668H390.425L389.481 424.451H380.599Z" fill="#7B70EE"/>
<path d="M423.737 436.453L424.815 440.142H434.576L433.448 436.453H423.737Z" fill="#7B70EE"/>
<path d="M382.969 436.453L383.696 440.142H393L392.174 436.453H382.969Z" fill="#7B70EE"/>
<path d="M431.071 428.668L429.783 424.451H420.234L421.464 428.668H431.071Z" fill="#7B70EE"/>
<path d="M442.306 428.668L440.788 424.451H431.648L432.936 428.668H442.306Z" fill="#7B70EE"/>
<path d="M371.938 436.453L372.565 440.142H381.878L381.152 436.453H371.938Z" fill="#7B70EE"/>
<path d="M435.313 436.453L436.442 440.142H446.43L445.104 436.453H435.313Z" fill="#7B70EE"/>
<path d="M191.586 418.449L189.204 422.667H197.754L199.783 418.449H191.586Z" fill="#7B70EE"/>
<path d="M481.877 436.453L483.552 440.142H493.287L491.511 436.453H481.877Z" fill="#7B70EE"/>
<path d="M194.808 412.74L192.592 416.666H200.64L202.529 412.74H194.808Z" fill="#7B70EE"/>
<path d="M453.613 428.668L451.927 424.451H442.683L444.201 428.668H453.613Z" fill="#7B70EE"/>
<path d="M312.047 440.142L312.674 436.453H227.885L226.408 440.142H312.047Z" fill="#7B70EE"/>
<path d="M394.001 436.453L394.827 440.142H402.799L401.871 436.453H394.001Z" fill="#7B70EE"/>
<path d="M327.456 422.667H336.106L336.276 418.45H327.945L327.456 422.667Z" fill="#7B70EE"/>
<path d="M499.805 430.453H490.603L495.267 440.142H505.277L499.805 430.453Z" fill="#7B70EE"/>
<path d="M489.747 428.668H498.798L496.415 424.451H487.718L489.747 428.668Z" fill="#7B70EE"/>
<path d="M487.767 428.668L485.738 424.451H476.427L478.342 428.668H487.767Z" fill="#7B70EE"/>
<path d="M323.629 440.142L324.058 436.453H314.483L313.856 440.142H323.629Z" fill="#7B70EE"/>
<path d="M337.335 436.453L337.186 440.142H359.19L358.759 436.453H337.335Z" fill="#7B70EE"/>
<path d="M470.263 436.453L471.838 440.142H481.595L479.92 436.453H470.263Z" fill="#7B70EE"/>
<path d="M410.065 428.668L408.89 424.451H400.694L401.754 428.668H410.065Z" fill="#7B70EE"/>
<path d="M403.71 436.453L404.638 440.142H413.259L412.232 436.453H403.71Z" fill="#7B70EE"/>
<path d="M188.194 424.451L185.814 428.668H194.865L196.895 424.451H188.194Z" fill="#7B70EE"/>
<path d="M211.722 416.666L213.505 412.74H204.51L202.621 416.666H211.722Z" fill="#7B70EE"/>
<path d="M204.695 436.453L203.019 440.142H212.775L214.351 436.453H204.695Z" fill="#7B70EE"/>
<path d="M335.863 428.668L336.034 424.451H327.247L326.758 428.668H335.863Z" fill="#7B70EE"/>
<path d="M369.108 430.453H359.859L360.348 434.669H369.826L369.108 430.453Z" fill="#7B70EE"/>
<path d="M398.164 471.568H286.447C285.972 471.568 285.538 471.348 285.256 470.966C284.974 470.584 284.893 470.104 285.032 469.649L292.134 446.547C292.327 445.92 292.896 445.502 293.549 445.502H391.063C391.716 445.502 392.285 445.922 392.478 446.547L399.58 469.649C399.721 470.104 399.639 470.584 399.357 470.966C399.073 471.348 398.639 471.568 398.164 471.568ZM293.548 446.823C293.476 446.823 293.416 446.868 293.394 446.937L286.294 470.04C286.273 470.103 286.295 470.153 286.317 470.182C286.339 470.211 286.378 470.246 286.446 470.246H398.164C398.231 470.246 398.27 470.211 398.292 470.182C398.314 470.153 398.336 470.103 398.317 470.04L391.215 446.936C391.194 446.87 391.131 446.823 391.061 446.823H293.548Z" fill="#7B70EE"/>
<path d="M487.646 103.808L366.292 122.966L482.974 181.399L603.826 163.409L487.646 103.808Z" fill="#1C1C84"/>
<path d="M366.293 122.966V125.745L483.062 186.824L603.826 166.069V163.409L482.974 181.399L366.293 122.966Z" fill="#2525AD"/>
<path d="M411.43 188.707L409.57 201.056C409.57 201.056 459.401 241.102 529.665 221.412L530.741 211.763C468.634 222.164 429.538 202.013 411.43 188.707Z" fill="#2525AD"/>
<path d="M559.378 253.73C552.875 248.568 548.269 240.953 546.074 232.941C545.912 232.347 545.12 232.562 545.028 233.071C544.88 232.874 544.583 232.846 544.345 232.97C544.231 232.558 543.56 232.369 543.302 232.868C538.843 241.521 542.288 251.294 545.272 259.853C545.506 260.526 546.25 260.163 546.014 259.489C543.68 252.79 541.18 245.289 542.601 238.231C541.808 247.154 544.779 256.293 550.22 263.374C550.614 263.884 551.223 263.271 550.829 262.756C545.889 256.328 543.336 248.17 543.599 240.068C543.751 243.259 544.245 246.442 545.266 249.452C546.829 254.063 549.441 258.464 552.057 262.547C552.441 263.148 553.048 262.529 552.663 261.929C550.15 258.005 547.982 253.789 546.414 249.383C545.741 247.495 545.299 245.517 545.017 243.511C546.52 250 549.652 256.102 554.153 261.056C554.627 261.577 555.254 261.114 554.775 260.586C549.842 255.159 546.877 248.209 545.653 241.039C547.463 247.754 550.802 254.105 555.213 259.56C555.659 260.112 556.124 259.513 555.674 258.956C551.368 253.631 548.522 247.405 546.744 240.853C549.139 247.611 552.247 254.13 557.736 258.935C558.274 259.407 558.862 258.861 558.326 258.391C554.555 255.09 552.07 250.631 550.044 246.159C552.242 250.069 554.886 253.723 557.953 257.026C558.438 257.548 558.848 256.717 558.368 256.201C555.669 253.296 553.599 250.078 551.593 246.676C553.659 249.446 556.06 251.969 558.779 254.127C559.334 254.57 559.938 254.175 559.378 253.73Z" fill="#F0C64B"/>
<path d="M547.948 160.22C545.413 157.188 541.991 155.195 538.485 153.494C531.513 150.11 523.769 148.64 516.212 147.209C505.531 145.186 494.604 143.313 485.723 136.576C485.377 136.314 485.044 136.446 484.845 136.712C484.828 136.728 484.816 136.749 484.801 136.766C484.796 136.777 484.788 136.782 484.782 136.793C484.569 137.056 484.511 137.435 484.828 137.738C491.336 143.966 500.038 147.049 508.604 149.219C517.26 151.413 526.095 152.914 534.38 156.357C534.637 156.464 534.894 156.571 535.152 156.678C535.201 156.698 535.475 156.824 535.478 156.823C535.902 157.029 536.321 157.241 536.744 157.45C538.295 158.22 539.805 159.017 541.225 160.017C542.926 161.215 544.502 162.683 545.596 164.467C546.792 166.417 547.207 168.605 547.163 170.873C547.118 173.234 546.681 175.581 546.298 177.904C545.902 180.312 545.545 182.725 545.175 185.135C544.41 190.119 543.698 195.106 543.16 200.119C541.978 211.155 541.654 222.413 543.637 233.38C543.785 234.194 545.149 234.015 545.087 233.184C544.317 222.775 545.165 212.339 546.624 202.027C547.35 196.895 548.23 191.784 549.127 186.678C549.967 181.886 551.078 177.056 551.472 172.2C551.828 167.797 550.809 163.643 547.948 160.22Z" fill="#F0C64B"/>
<path d="M543.087 234.165C543.213 234.103 543.34 234.047 543.469 233.993C543.546 233.963 543.543 233.964 543.457 233.996C543.495 233.983 543.532 233.968 543.57 233.957C543.627 233.938 543.684 233.919 543.741 233.901C544.017 233.816 544.299 233.755 544.586 233.714C544.655 233.704 544.725 233.692 544.793 233.687C544.6 233.698 544.826 233.688 544.864 233.685C545.003 233.677 545.143 233.674 545.282 233.677C545.421 233.68 545.56 233.687 545.698 233.701C545.767 233.708 545.837 233.715 545.906 233.724C545.945 233.73 545.985 233.734 546.024 233.742C545.928 233.724 545.922 233.723 546.005 233.739C546.209 233.777 546.387 233.787 546.577 233.686C546.734 233.603 546.886 233.433 546.932 233.257C547.026 232.91 546.858 232.406 546.451 232.33C545.064 232.071 543.663 232.234 542.39 232.859C542.042 233.03 541.889 233.524 542.087 233.86C542.296 234.216 542.716 234.347 543.087 234.165Z" fill="#D8A32B"/>
<path d="M542.94 232.722C543.066 232.66 543.193 232.605 543.321 232.55C543.399 232.52 543.396 232.521 543.31 232.553C543.348 232.54 543.384 232.527 543.422 232.514C543.479 232.495 543.536 232.476 543.593 232.458C543.87 232.373 544.152 232.311 544.438 232.271C544.507 232.261 544.577 232.249 544.646 232.245C544.453 232.255 544.678 232.245 544.716 232.242C544.855 232.234 544.995 232.232 545.134 232.234C545.273 232.237 545.413 232.245 545.551 232.259C545.621 232.267 545.69 232.274 545.759 232.283C545.798 232.289 545.837 232.294 545.877 232.3C545.78 232.283 545.773 232.281 545.858 232.297C546.061 232.335 546.239 232.346 546.43 232.245C546.586 232.161 546.739 231.99 546.785 231.816C546.878 231.469 546.71 230.963 546.304 230.888C544.915 230.629 543.516 230.793 542.242 231.418C541.896 231.589 541.741 232.084 541.94 232.419C542.149 232.773 542.567 232.905 542.94 232.722Z" fill="#D8A32B"/>
<path d="M534.389 182.704L534.991 177.899L483.061 186.824L417.686 152.627L416.285 160.708L481.755 193.698L534.389 182.704Z" fill="#0C0C5B"/>
<path d="M481.756 193.698L416.285 160.708L411.43 188.707C429.538 202.013 468.634 222.164 530.741 211.764L534.389 182.704L481.756 193.698Z" fill="#1C1C84"/>
<path d="M598.709 468.431H460.041V495.796H598.709V468.431Z" fill="#F0C64B"/>
<path d="M473.429 468.431H467.844V495.796H473.429V468.431Z" fill="#D8A32B"/>
<path d="M481.814 468.431H476.227V495.796H481.814V468.431Z" fill="#D8A32B"/>
<path d="M582.522 468.431H576.935V495.796H582.522V468.431Z" fill="#D8A32B"/>
<path d="M590.903 468.431H585.317V495.796H590.903V468.431Z" fill="#D8A32B"/>
<path d="M612.051 453.181V448.972C612.051 442.988 607.187 438.121 601.21 438.121H477.621V464.033H601.21C607.187 464.033 612.051 459.165 612.051 453.181Z" fill="white"/>
<path d="M601.209 433.561H476.811V435.841V438.121H601.209C607.187 438.121 612.049 442.989 612.049 448.971V453.181C612.049 459.165 607.185 464.032 601.209 464.032H476.811V466.312V468.592H601.209C609.698 468.592 616.605 461.679 616.605 453.181V448.971C616.605 440.474 609.698 433.561 601.209 433.561Z" fill="#2525AD"/>
<path d="M603.63 443.922H477.62V445.995H603.63V443.922Z" fill="#F5F5FF"/>
<path d="M603.63 450.167H477.62V452.24H603.63V450.167Z" fill="#F5F5FF"/>
<path d="M603.63 456.412H477.62V458.486H603.63V456.412Z" fill="#F5F5FF"/>
<path d="M467.026 419.847V416.056C467.026 410.668 471.405 406.285 476.788 406.285H588.073V429.618H476.788C471.406 429.618 467.026 425.235 467.026 419.847Z" fill="white"/>
<path d="M476.787 402.179H588.8V404.232V406.285H476.787C471.404 406.285 467.026 410.668 467.026 416.056V419.847C467.026 425.235 471.404 429.618 476.787 429.618H588.8V431.671V433.724H476.787C469.142 433.724 462.923 427.499 462.923 419.847V416.056C462.923 408.404 469.142 402.179 476.787 402.179Z" fill="#F0C64B"/>
<path d="M474.606 413.375H588.071V411.508H474.606V413.375Z" fill="#F5F5FF"/>
<path d="M474.606 418.999H588.071V417.131H474.606V418.999Z" fill="#F5F5FF"/>
<path d="M474.606 424.623H588.071V422.756H474.606V424.623Z" fill="#F5F5FF"/>
<path d="M243.429 111.22C248.667 111.22 252.912 115.34 252.912 120.422V121.823C254.82 127.195 255.981 134.186 255.981 141.853C255.981 149.519 254.819 156.509 252.912 161.883V163.283C252.912 168.365 248.667 172.486 243.429 172.486C236.496 172.486 230.876 158.771 230.876 141.853C230.875 124.934 236.496 111.22 243.429 111.22Z" fill="#F0C64B"/>
<path d="M235.141 142.242C235.141 152.59 235.942 160.981 236.929 160.981C237.917 160.981 238.717 152.592 238.717 142.242C238.717 131.893 237.915 123.503 236.929 123.503C235.942 123.504 235.141 131.893 235.141 142.242Z" fill="#D8A32B"/>
<path d="M266.193 127.972V129.2V155.286V156.514C265.547 163.576 259.057 170.121 250.358 172.486V155.286V129.2V112C259.057 114.365 265.547 120.91 266.193 127.972Z" fill="#7B70EE"/>
<path d="M250.356 175.764C251.773 175.764 252.93 174.64 252.93 173.266V111.22C252.93 109.846 251.771 108.72 250.356 108.72C248.939 108.72 247.781 109.844 247.781 111.22V173.266C247.78 174.64 248.939 175.764 250.356 175.764Z" fill="#2525AD"/>
<path d="M194.163 111.22C188.924 111.22 184.679 115.34 184.679 120.422V121.823C182.771 127.195 181.61 134.186 181.61 141.853C181.61 149.519 182.772 156.509 184.679 161.883V163.283C184.679 168.365 188.924 172.486 194.163 172.486C201.095 172.486 206.715 158.771 206.715 141.853C206.715 124.934 201.095 111.22 194.163 111.22Z" fill="#F0C64B"/>
<path d="M202.449 142.242C202.449 152.59 201.648 160.981 200.661 160.981C199.674 160.981 198.873 152.592 198.873 142.242C198.873 131.893 199.674 123.503 200.661 123.503C201.648 123.504 202.449 131.893 202.449 142.242Z" fill="#D8A32B"/>
<path d="M171.398 127.972V129.2V155.286V156.514C172.045 163.576 178.534 170.121 187.233 172.486V155.286V129.2V112C178.534 114.364 172.045 120.91 171.398 127.972Z" fill="#7B70EE"/>
<path d="M187.234 175.764C185.817 175.764 184.659 174.64 184.659 173.266V111.22C184.659 109.846 185.817 108.72 187.234 108.72C188.65 108.72 189.808 109.844 189.808 111.22V173.266C189.808 174.64 188.649 175.764 187.234 175.764Z" fill="#2525AD"/>
<path d="M250.598 73.4607C245.453 69.2097 238.706 66.5187 232.307 64.9471C225.737 63.3331 218.875 62.9204 212.157 63.7004C210.129 63.936 208.11 64.2535 206.113 64.6749C204.746 64.9632 203.245 65.1885 201.977 65.79C200.653 66.4192 199.354 67.1128 198.044 67.7742C194.498 69.5639 190.949 71.3535 187.403 73.1431C185.99 73.8557 186.157 75.9234 187.403 76.6785C190.682 78.6686 194.438 78.9232 198.151 78.3306C200.762 77.9135 203.147 76.9433 205.625 76.0844C210.076 74.5406 214.886 73.7855 219.588 73.7636C223.779 73.7445 228.031 74.3723 231.904 76.0302C237.633 78.5003 244.487 80.1436 250.184 76.6785C251.219 76.0463 251.645 74.3255 250.598 73.4607Z" fill="#7B70EE"/>
<path d="M219.679 61.4233L219.688 61.3779C219.388 61.3779 219.093 61.3955 218.793 61.3999C218.495 61.3955 218.199 61.3779 217.898 61.3779L217.907 61.4233C188.369 62.3657 164.709 86.6127 164.709 116.406V149.796C164.709 153.504 167.712 156.511 171.418 156.511V123.592L171.273 122.736C169.013 109.386 171.903 95.4921 180.041 84.6768C183.842 79.6254 188.991 74.8682 195.961 71.4309C196.045 71.3899 196.127 71.3504 196.21 71.3094C210.413 64.3792 227.175 64.3792 241.378 71.3094C241.461 71.3504 241.543 71.3899 241.626 71.4309C248.639 74.8887 253.807 79.6825 257.614 84.766C265.705 95.5726 268.569 109.432 266.313 122.745L266.17 123.594V156.512C269.874 156.512 272.879 153.507 272.879 149.797V116.407C272.877 86.6127 249.217 62.3657 219.679 61.4233Z" fill="#2525AD"/>
<path d="M106.014 115.869L121.705 131.575" stroke="#7B70EE" stroke-width="2.94538" stroke-miterlimit="10"/>
<path d="M122.021 115.869L106.33 131.575" stroke="#7B70EE" stroke-width="2.94538" stroke-miterlimit="10"/>
<path d="M633.889 351.442L649.58 367.147" stroke="#7B70EE" stroke-width="2.94538" stroke-miterlimit="10"/>
<path d="M649.893 351.442L634.202 367.147" stroke="#7B70EE" stroke-width="2.94538" stroke-miterlimit="10"/>
<path d="M61.7361 296.402L75.6321 310.309" stroke="#2525AD" stroke-width="2.60824" stroke-miterlimit="10"/>
<path d="M75.9099 296.402L62.0154 310.309" stroke="#2525AD" stroke-width="2.60824" stroke-miterlimit="10"/>
<path d="M54.3743 181.1C54.3743 187.378 49.2896 192.467 43.0177 192.467C36.7459 192.467 31.6611 187.378 31.6611 181.1C31.6611 174.823 36.7459 169.733 43.0177 169.733C49.2896 169.732 54.3743 174.821 54.3743 181.1Z" stroke="#7B70EE" stroke-width="2.94538" stroke-miterlimit="10"/>
<path d="M550.608 145.131C550.608 146.726 549.315 148.019 547.722 148.019C546.128 148.019 544.836 146.726 544.836 145.131C544.836 143.536 546.128 142.242 547.722 142.242C549.315 142.242 550.608 143.536 550.608 145.131Z" stroke="#2525AD" stroke-width="2.60824" stroke-miterlimit="10"/>
<path d="M272.325 48.82C272.325 50.415 271.032 51.7086 269.439 51.7086C267.845 51.7086 266.553 50.415 266.553 48.82C266.553 47.225 267.845 45.9314 269.439 45.9314C271.032 45.9314 272.325 47.225 272.325 48.82Z" stroke="#2525AD" stroke-width="2.60824" stroke-miterlimit="10"/>
<path d="M328.803 128.237L328.795 128.235C328.588 128.218 328.371 128.208 328.152 128.208C323.877 128.208 320.399 131.689 320.399 135.967C320.399 140.246 323.877 143.727 328.152 143.727C328.371 143.727 328.585 143.719 328.785 143.701C332.781 143.372 335.905 139.975 335.905 135.967C335.905 131.961 332.785 128.565 328.803 128.237Z" fill="#2525AD"/>
<path d="M355.971 135.969C355.971 134.628 355.449 133.369 354.5 132.419C353.553 131.471 352.293 130.948 350.954 130.948H348.082L347.787 129.977C347.403 128.709 346.891 127.476 346.27 126.31L345.791 125.414L347.824 123.38C349.78 121.422 349.78 118.236 347.824 116.279C346.876 115.33 345.616 114.808 344.275 114.808C342.935 114.808 341.676 115.33 340.729 116.277L338.697 118.311L337.802 117.833C336.637 117.209 335.404 116.699 334.138 116.314L333.169 116.018V113.144C333.169 110.766 331.479 108.696 329.151 108.223C328.824 108.157 328.486 108.124 328.153 108.124C326.814 108.124 325.553 108.646 324.606 109.594C323.659 110.544 323.137 111.804 323.137 113.144V116.018L322.168 116.314C320.901 116.699 319.669 117.211 318.504 117.833L317.609 118.311L315.577 116.277C313.622 114.321 310.438 114.321 308.482 116.277C307.536 117.225 307.014 118.487 307.014 119.829C307.014 121.17 307.536 122.43 308.483 123.379L310.516 125.413L310.038 126.308C309.415 127.474 308.905 128.708 308.519 129.975L308.223 130.947H305.352C302.586 130.947 300.336 133.199 300.336 135.967C300.336 137.308 300.858 138.569 301.805 139.517C302.753 140.466 304.013 140.988 305.352 140.988H308.223L308.519 141.958C308.905 143.225 309.415 144.459 310.038 145.625L310.516 146.521L308.483 148.555C306.527 150.513 306.527 153.698 308.483 155.656C309.431 156.603 310.69 157.125 312.032 157.125C313.372 157.125 314.631 156.603 315.578 155.655L317.611 153.621L318.505 154.099C319.67 154.723 320.903 155.233 322.169 155.62L323.138 155.915V158.789C323.138 161.558 325.388 163.81 328.154 163.81C328.479 163.81 328.808 163.778 329.129 163.715L329.283 163.683C330.198 163.472 331.031 163.009 331.701 162.339C332.648 161.39 333.17 160.13 333.17 158.789V155.915L334.14 155.62C335.406 155.235 336.638 154.723 337.803 154.099L338.698 153.621L340.73 155.656C341.675 156.602 342.935 157.123 344.277 157.123C345.619 157.123 346.879 156.602 347.825 155.655C348.771 154.707 349.293 153.445 349.293 152.103C349.293 150.763 348.771 149.502 347.824 148.553L345.791 146.521L346.27 145.625C346.892 144.459 347.403 143.224 347.789 141.958L348.084 140.988H350.955C353.72 140.99 355.971 138.737 355.971 135.969ZM338.53 145.577C336.121 148.183 332.852 149.78 329.325 150.069C328.948 150.102 328.55 150.119 328.151 150.119C320.356 150.119 314.014 143.771 314.014 135.969C314.014 128.167 320.356 121.819 328.151 121.819C328.552 121.819 328.953 121.836 329.341 121.87C332.855 122.158 336.121 123.753 338.531 126.361C340.955 128.983 342.29 132.395 342.29 135.97C342.289 139.544 340.954 142.956 338.53 145.577Z" fill="#2525AD"/>
<path d="M543.466 354.585L543.463 354.589C543.403 354.712 543.348 354.841 543.295 354.974C542.292 357.58 543.595 360.518 546.2 361.521C548.804 362.525 551.739 361.219 552.741 358.613C552.792 358.48 552.836 358.348 552.872 358.221C553.609 355.707 552.275 353.006 549.836 352.066C547.399 351.127 544.599 352.233 543.466 354.585Z" fill="#2525AD"/>
<path d="M554.544 339.832C553.728 339.517 552.838 339.54 552.038 339.895C551.238 340.25 550.626 340.896 550.311 341.712L549.637 343.464L548.976 343.415C548.115 343.352 547.244 343.376 546.389 343.481L545.732 343.563L544.971 341.847C544.238 340.195 542.3 339.448 540.649 340.181C539.849 340.537 539.237 341.182 538.922 342C538.608 342.817 538.63 343.708 538.985 344.507L539.747 346.223L539.246 346.657C538.594 347.221 537.993 347.852 537.462 348.534L537.054 349.056L535.304 348.382C533.857 347.824 532.2 348.369 531.367 349.677C531.25 349.861 531.151 350.059 531.072 350.262C530.757 351.079 530.781 351.97 531.135 352.77C531.49 353.571 532.135 354.185 532.95 354.498L534.7 355.173L534.652 355.834C534.589 356.696 534.613 357.568 534.718 358.425L534.8 359.083L533.085 359.845C531.436 360.579 530.689 362.519 531.421 364.171C531.776 364.97 532.421 365.585 533.238 365.899C534.054 366.214 534.944 366.192 535.744 365.836L537.459 365.074L537.892 365.576C538.455 366.228 539.086 366.83 539.768 367.361L540.289 367.769L539.615 369.521C538.966 371.208 539.81 373.107 541.496 373.757C542.311 374.072 543.202 374.048 544.001 373.694C544.801 373.339 545.414 372.693 545.728 371.877L546.402 370.125L547.063 370.173C547.924 370.236 548.795 370.213 549.65 370.108L550.307 370.026L551.069 371.742C551.801 373.394 553.74 374.141 555.39 373.407C556.188 373.052 556.802 372.406 557.117 371.588C557.431 370.772 557.409 369.881 557.054 369.08L556.292 367.364L556.794 366.931C557.446 366.366 558.047 365.735 558.577 365.053L558.985 364.531L560.735 365.206C562.421 365.855 564.318 365.011 564.967 363.324C565.043 363.126 565.101 362.918 565.139 362.706L565.155 362.605C565.241 361.998 565.155 361.38 564.903 360.816C564.548 360.015 563.903 359.401 563.087 359.087L561.337 358.413L561.386 357.751C561.447 356.89 561.425 356.017 561.32 355.161L561.238 354.503L562.953 353.74C563.75 353.386 564.362 352.74 564.678 351.922C564.992 351.104 564.97 350.212 564.617 349.413C564.261 348.614 563.617 348 562.799 347.685C561.984 347.371 561.093 347.393 560.294 347.748L558.58 348.511L558.147 348.009C557.583 347.356 556.951 346.755 556.272 346.223L555.75 345.815L556.424 344.064C557.071 342.382 556.229 340.481 554.544 339.832ZM556.302 352.721C557.324 354.801 557.528 357.169 556.878 359.387C556.81 359.626 556.726 359.872 556.633 360.115C554.804 364.867 549.453 367.247 544.705 365.416C539.956 363.586 537.579 358.23 539.408 353.477C539.501 353.233 539.607 352.993 539.718 352.764C540.718 350.689 542.455 349.073 544.607 348.215C546.77 347.352 549.161 347.338 551.336 348.177C553.512 349.013 555.275 350.628 556.302 352.721Z" fill="#2525AD"/>
<path d="M47.1756 168.391V168.076L46.8912 167.94C35.8445 162.661 28.1917 151.253 28.1917 138.02C28.1917 119.759 42.7579 104.97 60.7079 104.97C78.6579 104.97 93.2242 119.759 93.2242 138.02C93.2242 151.253 85.5713 162.661 74.5261 167.94L74.2417 168.076V168.391V178.591H47.1756V168.391Z" fill="#D4D0FF" stroke="#2525AD"/>
<path d="M75.4287 182.64H45.7391C44.2508 182.64 43.0344 181.422 43.0344 179.933C43.0344 178.443 44.2508 177.226 45.7391 177.226H75.4302C76.917 177.226 78.1348 178.443 78.1348 179.933C78.1334 181.422 76.917 182.64 75.4287 182.64Z" fill="#F0C64B"/>
<path d="M60.5854 198.002C54.5942 198.002 49.7375 193.141 49.7375 187.144V185.349H71.4346V187.144C71.4332 193.141 66.5765 198.002 60.5854 198.002Z" fill="#F0C64B"/>
<path d="M75.4287 188.054H45.7391C44.2508 188.054 43.0344 186.835 43.0344 185.347C43.0344 183.859 44.2508 182.64 45.7391 182.64H75.4302C76.917 182.64 78.1348 183.858 78.1348 185.347C78.1334 186.837 76.917 188.054 75.4287 188.054Z" fill="#D8A32B"/>
<path d="M63.5703 177.227H62.0323V131.601C62.0323 130.804 61.3832 130.154 60.5864 130.154C59.7882 130.154 59.1391 130.804 59.1391 131.601V177.227H57.6011V131.601C57.6011 129.953 58.9402 128.615 60.5864 128.615C62.2326 128.615 63.5703 129.953 63.5703 131.601V177.227Z" fill="#D8A32B"/>
<path d="M9.01141 125.825L8.11084 130.525L21.8256 133.156C22.0098 131.553 22.2905 129.98 22.6618 128.44L9.01141 125.825Z" fill="#7B70EE"/>
<path d="M19.8754 104.18L16.9836 107.998L27.9221 116.286C28.7978 114.947 29.7539 113.664 30.7832 112.446L19.8754 104.18Z" fill="#7B70EE"/>
<path d="M39.0504 89.5601L34.7786 91.7126L40.9276 103.914C42.3004 103.11 43.7229 102.385 45.1951 101.751L39.0504 89.5601Z" fill="#7B70EE"/>
<path d="M113.061 130.525L112.16 125.825L98.5081 128.44C98.8794 129.978 99.1616 131.553 99.3443 133.156L113.061 130.525Z" fill="#7B70EE"/>
<path d="M104.186 107.998L101.295 104.18L90.387 112.446C91.4162 113.665 92.3709 114.947 93.248 116.286L104.186 107.998Z" fill="#7B70EE"/>
<path d="M86.3938 91.7126L82.122 89.5601L75.9758 101.752C77.448 102.386 78.8705 103.112 80.2433 103.915L86.3938 91.7126Z" fill="#7B70EE"/>
<path d="M63.0297 98.6749L62.9112 84.7852L58.1262 84.8291L58.2461 98.6661C59.0209 98.6208 59.7987 98.5901 60.5838 98.5901C61.4069 98.5915 62.2212 98.6252 63.0297 98.6749Z" fill="#7B70EE"/>
<path d="M190.441 380.721H232.087V303.351H190.441V380.721Z" fill="#E0E0E0"/>
<path d="M231.575 380.721H302.069V324.237H231.575V380.721Z" fill="#E0E0E0"/>
<path d="M232.06 380.767C232.137 380.767 232.199 363.742 232.199 342.745C232.199 321.741 232.137 304.719 232.06 304.719C231.984 304.719 231.922 321.741 231.922 342.745C231.922 363.742 231.984 380.767 232.06 380.767Z" fill="#EBEBEB"/>
<path d="M190.442 380.721H302.069V355.278H190.442V380.721Z" fill="#EBEBEB"/>
<path d="M233.401 299.952L211.285 288.556L189.285 299.952H233.401Z" fill="#EBEBEB"/>
<path d="M189.285 302.5H233.401V299.952H189.285V302.5Z" fill="#E0E0E0"/>
<path d="M189.819 303.351H232.724V302.5H189.819V303.351Z" fill="#E0E0E0"/>
<path d="M189.239 302.499C189.239 302.576 199.125 302.638 211.318 302.638C223.514 302.638 233.399 302.576 233.399 302.499C233.399 302.423 223.514 302.36 211.318 302.36C199.125 302.36 189.239 302.423 189.239 302.499Z" fill="#EBEBEB"/>
<path d="M189.785 303.35C189.785 303.427 199.398 303.49 211.253 303.49C223.113 303.49 232.724 303.428 232.724 303.35C232.724 303.274 223.113 303.211 211.253 303.211C199.398 303.211 189.785 303.274 189.785 303.35Z" fill="#EBEBEB"/>
<path d="M214.494 327.83H223.441V312.435H214.494V327.83Z" fill="#EBEBEB"/>
<path d="M215.486 326.955H222.5V313.56H215.486V326.955Z" fill="#FAFAFA"/>
<path d="M219.134 327.015C219.21 327.015 219.272 323.995 219.272 320.272C219.272 316.546 219.21 313.527 219.134 313.527C219.057 313.527 218.995 316.546 218.995 320.272C218.995 323.995 219.057 327.015 219.134 327.015Z" fill="#E0E0E0"/>
<path d="M215.485 317.599C215.485 317.676 217.055 317.738 218.992 317.738C220.929 317.738 222.499 317.676 222.499 317.599C222.499 317.522 220.929 317.46 218.992 317.46C217.055 317.46 215.485 317.522 215.485 317.599Z" fill="#E0E0E0"/>
<path d="M215.485 322.329C215.485 322.405 217.055 322.467 218.992 322.467C220.929 322.467 222.499 322.405 222.499 322.329C222.499 322.252 220.929 322.19 218.992 322.19C217.055 322.189 215.485 322.251 215.485 322.329Z" fill="#E0E0E0"/>
<path d="M198.983 327.83H207.931V312.435H198.983V327.83Z" fill="#EBEBEB"/>
<path d="M199.975 326.955H206.989V313.56H199.975V326.955Z" fill="#FAFAFA"/>
<path d="M203.623 327.015C203.7 327.015 203.762 323.995 203.762 320.272C203.762 316.546 203.7 313.527 203.623 313.527C203.546 313.527 203.484 316.546 203.484 320.272C203.484 323.995 203.546 327.015 203.623 327.015Z" fill="#E0E0E0"/>
<path d="M199.974 317.599C199.974 317.676 201.544 317.738 203.481 317.738C205.418 317.738 206.988 317.676 206.988 317.599C206.988 317.522 205.418 317.46 203.481 317.46C201.544 317.46 199.974 317.522 199.974 317.599Z" fill="#E0E0E0"/>
<path d="M199.974 322.329C199.974 322.405 201.544 322.467 203.481 322.467C205.418 322.467 206.988 322.405 206.988 322.329C206.988 322.252 205.418 322.19 203.481 322.19C201.544 322.189 199.974 322.251 199.974 322.329Z" fill="#E0E0E0"/>
<path d="M214.494 347.281H223.441V331.887H214.494V347.281Z" fill="#EBEBEB"/>
<path d="M215.486 346.407H222.5V333.012H215.486V346.407Z" fill="#FAFAFA"/>
<path d="M219.134 346.467C219.21 346.467 219.272 343.447 219.272 339.723C219.272 335.998 219.21 332.979 219.134 332.979C219.057 332.979 218.995 335.998 218.995 339.723C218.995 343.447 219.057 346.467 219.134 346.467Z" fill="#E0E0E0"/>
<path d="M215.485 337.051C215.485 337.128 217.055 337.19 218.992 337.19C220.929 337.19 222.499 337.128 222.499 337.051C222.499 336.975 220.929 336.912 218.992 336.912C217.055 336.912 215.485 336.975 215.485 337.051Z" fill="#E0E0E0"/>
<path d="M215.485 341.78C215.485 341.856 217.055 341.919 218.992 341.919C220.929 341.919 222.499 341.857 222.499 341.78C222.499 341.703 220.929 341.641 218.992 341.641C217.055 341.641 215.485 341.703 215.485 341.78Z" fill="#E0E0E0"/>
<path d="M198.983 347.281H207.931V331.887H198.983V347.281Z" fill="#EBEBEB"/>
<path d="M199.975 346.406H206.989V333.011H199.975V346.406Z" fill="#FAFAFA"/>
<path d="M203.623 346.467C203.7 346.467 203.762 343.447 203.762 339.724C203.762 335.999 203.7 332.979 203.623 332.979C203.546 332.979 203.484 335.999 203.484 339.724C203.484 343.447 203.546 346.467 203.623 346.467Z" fill="#E0E0E0"/>
<path d="M199.974 337.051C199.974 337.128 201.544 337.19 203.481 337.19C205.418 337.19 206.988 337.128 206.988 337.051C206.988 336.975 205.418 336.912 203.481 336.912C201.544 336.912 199.974 336.975 199.974 337.051Z" fill="#E0E0E0"/>
<path d="M199.974 341.78C199.974 341.857 201.544 341.919 203.481 341.919C205.418 341.919 206.988 341.857 206.988 341.78C206.988 341.703 205.418 341.641 203.481 341.641C201.544 341.641 199.974 341.703 199.974 341.78Z" fill="#E0E0E0"/>
<path d="M284.589 346.592H293.536V331.198H284.589V346.592Z" fill="#F5F5F5"/>
<path d="M285.58 345.718H292.594V332.322H285.58V345.718Z" fill="#FAFAFA"/>
<path d="M289.228 345.778C289.305 345.778 289.367 342.758 289.367 339.034C289.367 335.309 289.305 332.29 289.228 332.29C289.151 332.29 289.089 335.309 289.089 339.034C289.089 342.758 289.151 345.778 289.228 345.778Z" fill="#E0E0E0"/>
<path d="M285.58 336.362C285.58 336.438 287.15 336.501 289.087 336.501C291.024 336.501 292.594 336.438 292.594 336.362C292.594 336.285 291.024 336.222 289.087 336.222C287.15 336.223 285.58 336.285 285.58 336.362Z" fill="#E0E0E0"/>
<path d="M285.58 341.091C285.58 341.168 287.15 341.23 289.087 341.23C291.024 341.23 292.594 341.168 292.594 341.091C292.594 341.015 291.024 340.952 289.087 340.952C287.15 340.952 285.58 341.014 285.58 341.091Z" fill="#E0E0E0"/>
<path d="M268.368 346.592H277.315V331.198H268.368V346.592Z" fill="#F5F5F5"/>
<path d="M269.36 345.718H276.374V332.323H269.36V345.718Z" fill="#FAFAFA"/>
<path d="M273.007 345.778C273.083 345.778 273.146 342.758 273.146 339.034C273.146 335.309 273.084 332.29 273.007 332.29C272.93 332.29 272.868 335.309 272.868 339.034C272.868 342.758 272.93 345.778 273.007 345.778Z" fill="#E0E0E0"/>
<path d="M269.361 336.362C269.361 336.439 270.931 336.501 272.868 336.501C274.805 336.501 276.375 336.439 276.375 336.362C276.375 336.285 274.805 336.222 272.868 336.222C270.931 336.223 269.361 336.285 269.361 336.362Z" fill="#E0E0E0"/>
<path d="M269.361 341.091C269.361 341.168 270.931 341.23 272.868 341.23C274.805 341.23 276.375 341.168 276.375 341.091C276.375 341.015 274.805 340.953 272.868 340.953C270.931 340.952 269.361 341.014 269.361 341.091Z" fill="#E0E0E0"/>
<path d="M252.149 346.592H261.097V331.198H252.149V346.592Z" fill="#F5F5F5"/>
<path d="M253.141 345.718H260.155V332.323H253.141V345.718Z" fill="#FAFAFA"/>
<path d="M256.788 345.778C256.865 345.778 256.927 342.758 256.927 339.034C256.927 335.309 256.865 332.29 256.788 332.29C256.711 332.29 256.649 335.309 256.649 339.034C256.649 342.758 256.711 345.778 256.788 345.778Z" fill="#E0E0E0"/>
<path d="M253.14 336.362C253.14 336.439 254.709 336.501 256.647 336.501C258.584 336.501 260.154 336.439 260.154 336.362C260.154 336.285 258.584 336.222 256.647 336.222C254.709 336.223 253.14 336.285 253.14 336.362Z" fill="#E0E0E0"/>
<path d="M253.14 341.091C253.14 341.168 254.709 341.23 256.647 341.23C258.584 341.23 260.154 341.168 260.154 341.091C260.154 341.015 258.584 340.953 256.647 340.953C254.709 340.952 253.14 341.014 253.14 341.091Z" fill="#E0E0E0"/>
<path d="M235.928 346.592H244.876V331.198H235.928V346.592Z" fill="#F5F5F5"/>
<path d="M236.917 345.718H243.932V332.323H236.917V345.718Z" fill="#FAFAFA"/>
<path d="M240.565 345.778C240.642 345.778 240.704 342.758 240.704 339.034C240.704 335.309 240.642 332.29 240.565 332.29C240.489 332.29 240.427 335.309 240.427 339.034C240.427 342.758 240.489 345.778 240.565 345.778Z" fill="#E0E0E0"/>
<path d="M236.919 336.362C236.919 336.439 238.489 336.501 240.426 336.501C242.363 336.501 243.933 336.439 243.933 336.362C243.933 336.285 242.363 336.222 240.426 336.222C238.489 336.223 236.919 336.285 236.919 336.362Z" fill="#E0E0E0"/>
<path d="M236.919 341.091C236.919 341.168 238.489 341.23 240.426 341.23C242.363 341.23 243.933 341.168 243.933 341.091C243.933 341.015 242.363 340.952 240.426 340.952C238.489 340.952 236.919 341.014 236.919 341.091Z" fill="#E0E0E0"/>
<path d="M189.166 353.619H302.261V351.014H189.166V353.619Z" fill="#E0E0E0"/>
<path d="M189.841 355.278H302.261V353.533H189.841V355.278Z" fill="#E0E0E0"/>
<path d="M302.262 353.743C302.262 353.667 277.055 353.604 245.968 353.604C214.871 353.604 189.669 353.666 189.669 353.743C189.669 353.82 214.87 353.882 245.968 353.882C277.055 353.882 302.262 353.82 302.262 353.743Z" fill="#EBEBEB"/>
<path d="M302.262 355.279C302.262 355.202 277.055 355.139 245.968 355.139C214.871 355.139 189.669 355.201 189.669 355.279C189.669 355.355 214.87 355.418 245.968 355.418C277.055 355.418 302.262 355.355 302.262 355.279Z" fill="#EBEBEB"/>
<path d="M302.262 351.014C302.262 350.937 277.055 350.874 245.968 350.874C214.871 350.874 189.669 350.936 189.669 351.014C189.669 351.09 214.87 351.152 245.968 351.152C277.055 351.153 302.262 351.09 302.262 351.014Z" fill="#EBEBEB"/>
<path d="M279.886 378.028H289.289V362.337C289.289 359.926 287.336 357.972 284.928 357.972H284.248C281.839 357.972 279.886 359.926 279.886 362.337V378.028H279.886Z" fill="#E0E0E0"/>
<path d="M281.218 376.58H287.956V362.547C287.956 360.819 286.557 359.419 284.831 359.419H284.343C282.617 359.419 281.218 360.819 281.218 362.547V376.58Z" fill="#FAFAFA"/>
<path d="M284.586 376.58C284.663 376.58 284.725 372.739 284.725 368C284.725 363.26 284.663 359.419 284.586 359.419C284.509 359.419 284.447 363.26 284.447 368C284.447 372.739 284.509 376.58 284.586 376.58Z" fill="#E0E0E0"/>
<path d="M281.262 364.766C281.262 364.842 282.765 364.904 284.618 364.904C286.473 364.904 287.976 364.842 287.976 364.766C287.976 364.689 286.473 364.627 284.618 364.627C282.765 364.626 281.262 364.688 281.262 364.766Z" fill="#E0E0E0"/>
<path d="M281.262 370.385C281.262 370.461 282.765 370.523 284.618 370.523C286.473 370.523 287.976 370.461 287.976 370.385C287.976 370.308 286.473 370.245 284.618 370.245C282.765 370.246 281.262 370.308 281.262 370.385Z" fill="#E0E0E0"/>
<path d="M261.603 378.028H271.007V362.337C271.007 359.926 269.054 357.972 266.646 357.972H265.965C263.556 357.972 261.604 359.926 261.604 362.337L261.603 378.028Z" fill="#E0E0E0"/>
<path d="M262.935 376.58H269.674V362.547C269.674 360.819 268.275 359.419 266.549 359.419H266.061C264.335 359.419 262.935 360.819 262.935 362.547V376.58Z" fill="#FAFAFA"/>
<path d="M266.303 376.58C266.38 376.58 266.443 372.739 266.443 368C266.443 363.26 266.381 359.419 266.303 359.419C266.227 359.419 266.165 363.26 266.165 368C266.165 372.739 266.227 376.58 266.303 376.58Z" fill="#E0E0E0"/>
<path d="M262.978 364.766C262.978 364.842 264.481 364.904 266.335 364.904C268.189 364.904 269.692 364.842 269.692 364.766C269.692 364.689 268.189 364.627 266.335 364.627C264.481 364.626 262.978 364.688 262.978 364.766Z" fill="#E0E0E0"/>
<path d="M262.978 370.385C262.978 370.461 264.481 370.523 266.335 370.523C268.189 370.523 269.692 370.461 269.692 370.385C269.692 370.308 268.189 370.245 266.335 370.245C264.481 370.246 262.978 370.308 262.978 370.385Z" fill="#E0E0E0"/>
<path d="M243.32 378.028H252.724V362.337C252.724 359.926 250.771 357.972 248.363 357.972H247.682C245.273 357.972 243.321 359.926 243.321 362.337L243.32 378.028Z" fill="#E0E0E0"/>
<path d="M244.65 376.58H251.39V362.547C251.39 360.819 249.99 359.419 248.264 359.419H247.776C246.05 359.419 244.651 360.819 244.651 362.547L244.65 376.58Z" fill="#FAFAFA"/>
<path d="M248.02 376.58C248.097 376.58 248.16 372.739 248.16 368C248.16 363.26 248.098 359.419 248.02 359.419C247.944 359.419 247.882 363.26 247.882 368C247.881 372.739 247.944 376.58 248.02 376.58Z" fill="#E0E0E0"/>
<path d="M244.694 364.766C244.694 364.842 246.197 364.904 248.051 364.904C249.905 364.904 251.408 364.842 251.408 364.766C251.408 364.689 249.905 364.627 248.051 364.627C246.197 364.626 244.694 364.688 244.694 364.766Z" fill="#E0E0E0"/>
<path d="M244.694 370.385C244.694 370.461 246.197 370.523 248.051 370.523C249.905 370.523 251.408 370.461 251.408 370.385C251.408 370.308 249.905 370.245 248.051 370.245C246.197 370.246 244.694 370.308 244.694 370.385Z" fill="#E0E0E0"/>
<path d="M225.036 378.028H234.44V362.337C234.44 359.926 232.487 357.972 230.078 357.972H229.398C226.989 357.972 225.036 359.926 225.036 362.337V378.028Z" fill="#E0E0E0"/>
<path d="M226.369 376.58H233.108V362.547C233.108 360.819 231.708 359.419 229.983 359.419H229.495C227.768 359.419 226.369 360.819 226.369 362.547V376.58Z" fill="#FAFAFA"/>
<path d="M229.736 376.58C229.813 376.58 229.876 372.739 229.876 368C229.876 363.26 229.814 359.419 229.736 359.419C229.66 359.419 229.598 363.26 229.598 368C229.598 372.739 229.66 376.58 229.736 376.58Z" fill="#E0E0E0"/>
<path d="M226.411 364.766C226.411 364.842 227.914 364.904 229.768 364.904C231.622 364.904 233.125 364.842 233.125 364.766C233.125 364.689 231.622 364.627 229.768 364.627C227.914 364.626 226.411 364.688 226.411 364.766Z" fill="#E0E0E0"/>
<path d="M226.411 370.385C226.411 370.461 227.914 370.523 229.768 370.523C231.622 370.523 233.125 370.461 233.125 370.385C233.125 370.308 231.622 370.245 229.768 370.245C227.914 370.246 226.411 370.308 226.411 370.385Z" fill="#E0E0E0"/>
<path d="M206.752 378.028H216.156V362.337C216.156 359.926 214.203 357.972 211.794 357.972H211.113C208.704 357.972 206.752 359.926 206.752 362.337V378.028Z" fill="#E0E0E0"/>
<path d="M208.084 376.58H214.823V362.547C214.823 360.819 213.423 359.419 211.697 359.419H211.209C209.483 359.419 208.084 360.819 208.084 362.547V376.58Z" fill="#FAFAFA"/>
<path d="M211.453 376.58C211.53 376.58 211.592 372.739 211.592 368C211.592 363.26 211.53 359.419 211.453 359.419C211.376 359.419 211.314 363.26 211.314 368C211.314 372.739 211.376 376.58 211.453 376.58Z" fill="#E0E0E0"/>
<path d="M208.127 364.766C208.127 364.842 209.63 364.904 211.483 364.904C213.338 364.904 214.841 364.842 214.841 364.766C214.841 364.689 213.338 364.627 211.483 364.627C209.63 364.626 208.127 364.688 208.127 364.766Z" fill="#E0E0E0"/>
<path d="M208.127 370.385C208.127 370.461 209.63 370.523 211.483 370.523C213.338 370.523 214.841 370.461 214.841 370.385C214.841 370.308 213.338 370.245 211.483 370.245C209.63 370.246 208.127 370.308 208.127 370.385Z" fill="#E0E0E0"/>
<path d="M231.017 323.385H303.388V320.838H231.017V323.385Z" fill="#E0E0E0"/>
<path d="M231.895 324.237H302.279V323.386H231.895V324.237Z" fill="#E0E0E0"/>
<path d="M231.017 320.838C231.017 320.838 231.15 320.845 231.398 320.848C231.654 320.85 232.02 320.853 232.496 320.858C233.467 320.862 234.882 320.869 236.704 320.878C240.359 320.887 245.636 320.902 252.17 320.92C265.229 320.934 283.299 320.955 303.388 320.977L303.249 320.838C303.249 321.643 303.249 322.51 303.249 323.382V323.386L303.388 323.247C268.392 323.247 239.009 323.291 231.017 323.352L231.052 323.386C231.043 322.523 231.037 321.892 231.032 321.467C231.026 321.046 231.017 320.838 231.017 320.838C231.017 320.838 231.009 321.03 231.003 321.446C230.999 321.876 230.992 322.513 230.983 323.385L230.982 323.419H231.017C239.008 323.48 268.391 323.524 303.387 323.524H303.526V323.385V323.381C303.526 322.51 303.526 321.642 303.526 320.838V320.698H303.387C283.258 320.721 265.151 320.741 252.067 320.755C245.547 320.773 240.281 320.788 236.633 320.797C234.825 320.806 233.42 320.813 232.458 320.817C231.989 320.822 231.63 320.825 231.378 320.827C231.136 320.831 231.017 320.838 231.017 320.838Z" fill="#EBEBEB"/>
<path d="M302.279 323.386C302.274 323.386 302.269 323.456 302.264 323.598C302.26 323.755 302.256 323.965 302.249 324.237L302.279 324.207C298.8 324.144 284.349 324.097 267.06 324.097C249.767 324.097 235.319 324.144 231.839 324.207L231.869 324.239C231.881 323.966 231.89 323.755 231.897 323.598C231.901 323.456 231.901 323.386 231.896 323.386C231.891 323.385 231.881 323.456 231.867 323.596C231.853 323.753 231.834 323.963 231.81 324.235L231.807 324.266L231.84 324.266C235.32 324.329 249.768 324.376 267.061 324.376C284.35 324.376 298.801 324.329 302.28 324.266L302.31 324.266L302.309 324.237C302.303 323.964 302.298 323.754 302.295 323.598C302.289 323.456 302.284 323.386 302.279 323.386Z" fill="#EBEBEB"/>
<path d="M231.017 320.838H303.387L301.98 314.377H232.193L231.017 320.838Z" fill="#EBEBEB"/>
<path d="M492.854 303.35H451.208V380.72H492.854V303.35Z" fill="#E0E0E0"/>
<path d="M451.721 324.237H381.227V380.72H451.721V324.237Z" fill="#E0E0E0"/>
<path d="M451.236 380.767C451.159 380.767 451.097 363.742 451.097 342.745C451.097 321.74 451.159 304.719 451.236 304.719C451.312 304.719 451.375 321.74 451.375 342.745C451.375 363.742 451.313 380.767 451.236 380.767Z" fill="#EBEBEB"/>
<path d="M492.854 355.278H381.227V380.721H492.854V355.278Z" fill="#EBEBEB"/>
<path d="M312.21 336.723C312.207 336.72 312.203 336.666 312.2 336.563C312.197 336.445 312.193 336.297 312.189 336.113C312.184 335.702 312.177 335.13 312.168 334.404C312.156 332.911 312.14 330.786 312.12 328.171C312.106 325.547 312.089 322.433 312.071 318.978C312.036 318.134 311.699 317.293 311.143 316.611C310.576 315.938 309.776 315.434 308.88 315.242C308.432 315.146 307.971 315.15 307.486 315.152C307.006 315.151 306.543 315.176 306.089 315.322C305.185 315.593 304.369 316.198 303.845 317.015C303.59 317.406 303.406 317.84 303.307 318.291C303.202 318.743 303.196 319.197 303.201 319.674C303.2 320.615 303.2 321.544 303.199 322.457C303.196 324.283 303.194 326.046 303.191 327.73C303.181 331.093 303.171 334.137 303.164 336.723L303.063 336.622C305.86 336.645 308.13 336.664 309.725 336.677C310.504 336.688 311.117 336.696 311.556 336.702C311.755 336.707 311.914 336.711 312.04 336.713C312.148 336.716 312.207 336.72 312.21 336.723C312.213 336.727 312.162 336.73 312.059 336.733C311.938 336.736 311.786 336.74 311.594 336.744C311.16 336.751 310.554 336.759 309.785 336.77C308.176 336.783 305.884 336.802 303.061 336.825L302.96 336.825V336.723C302.952 334.137 302.943 331.092 302.932 327.73C302.93 326.046 302.928 324.283 302.925 322.457C302.924 321.544 302.923 320.615 302.923 319.674C302.881 318.739 303.044 317.694 303.609 316.865C304.17 315.992 305.041 315.346 306.008 315.058C306.487 314.903 307.005 314.875 307.484 314.878C307.958 314.876 308.457 314.871 308.936 314.976C309.893 315.183 310.745 315.722 311.347 316.442C311.938 317.169 312.292 318.068 312.326 318.965C312.342 322.471 312.311 325.611 312.3 328.249C312.279 330.862 312.262 332.984 312.251 334.475C312.242 335.188 312.235 335.749 312.23 336.153C312.226 336.33 312.222 336.472 312.22 336.584C312.216 336.679 312.213 336.727 312.21 336.723Z" fill="#455A64"/>
<path d="M380.756 303.331H290.539V366.135H380.756V303.331Z" fill="#EBEBEB"/>
<path d="M383.623 304.054H288.072V306.924H383.623V304.054Z" fill="#E0E0E0"/>
<path d="M383.415 301.184H288.444V302.151H383.415V301.184Z" fill="#E0E0E0"/>
<path d="M384.348 298.941H288.072V301.183H384.348V298.941Z" fill="#E0E0E0"/>
<path d="M382.38 301.184H289.217V304.071H382.38V301.184Z" fill="#E0E0E0"/>
<path d="M288.153 298.941H384.402L335.886 276.116L288.153 298.941Z" fill="#E0E0E0"/>
<path d="M382.272 306.924H289.217V308.386H382.272V306.924Z" fill="#E0E0E0"/>
<path d="M296.165 308.385H290.539V366.135H296.165V308.385Z" fill="#E0E0E0"/>
<path d="M296.165 366.135C296.165 366.135 296.159 366.03 296.155 365.833C296.153 365.627 296.15 365.339 296.146 364.964C296.141 364.194 296.135 363.075 296.126 361.635C296.117 358.739 296.103 354.556 296.085 349.364C296.07 338.982 296.049 324.566 296.026 308.385L296.164 308.524C294.374 308.524 292.468 308.524 290.541 308.525H290.538L290.677 308.386C290.64 334.138 290.608 356.287 290.595 366.136L290.538 366.079C292.349 366.093 293.748 366.104 294.704 366.111C295.175 366.117 295.535 366.122 295.789 366.125C296.035 366.128 296.165 366.135 296.165 366.135C296.165 366.135 296.048 366.142 295.81 366.146C295.558 366.149 295.203 366.154 294.738 366.159C293.774 366.167 292.364 366.177 290.539 366.192L290.482 366.192V366.135C290.468 356.286 290.437 334.138 290.4 308.385V308.246H290.539H290.542C292.468 308.246 294.374 308.246 296.166 308.246H296.304V308.385C296.281 324.606 296.26 339.057 296.245 349.464C296.228 354.643 296.213 358.815 296.204 361.703C296.196 363.13 296.189 364.238 296.185 365.001C296.181 365.368 296.178 365.65 296.175 365.851C296.171 366.042 296.165 366.135 296.165 366.135Z" fill="#EBEBEB"/>
<path d="M313.199 308.385H307.573V366.135H313.199V308.385Z" fill="#E0E0E0"/>
<path d="M313.197 366.135C313.197 366.135 313.191 366.03 313.188 365.833C313.186 365.627 313.182 365.339 313.178 364.964C313.173 364.194 313.167 363.075 313.159 361.635C313.149 358.74 313.135 354.557 313.118 349.364C313.103 338.982 313.082 324.566 313.059 308.385L313.197 308.524C311.407 308.524 309.501 308.524 307.574 308.525H307.571L307.71 308.386C307.673 334.138 307.642 356.287 307.628 366.136L307.571 366.079C309.382 366.093 310.781 366.104 311.737 366.112C312.208 366.117 312.568 366.122 312.822 366.125C313.067 366.128 313.197 366.135 313.197 366.135C313.197 366.135 313.082 366.142 312.842 366.146C312.591 366.15 312.235 366.154 311.77 366.159C310.806 366.167 309.396 366.177 307.571 366.192L307.515 366.192V366.135C307.501 356.286 307.469 334.138 307.432 308.385V308.246H307.572H307.575C309.501 308.246 311.407 308.247 313.198 308.247H313.337V308.385C313.313 324.606 313.293 339.058 313.278 349.465C313.26 354.643 313.246 358.816 313.236 361.703C313.228 363.13 313.222 364.238 313.217 365.001C313.213 365.368 313.21 365.65 313.207 365.851C313.204 366.043 313.197 366.135 313.197 366.135Z" fill="#EBEBEB"/>
<path d="M365.929 308.385H360.303V366.135H365.929V308.385Z" fill="#E0E0E0"/>
<path d="M365.93 366.135C365.93 366.135 365.924 366.03 365.92 365.833C365.918 365.627 365.915 365.339 365.91 364.964C365.906 364.194 365.899 363.075 365.891 361.635C365.881 358.739 365.868 354.556 365.85 349.364C365.835 338.982 365.814 324.566 365.79 308.385L365.929 308.524C364.138 308.524 362.232 308.524 360.306 308.525H360.303L360.442 308.386C360.405 334.138 360.373 356.287 360.359 366.136L360.303 366.079C362.114 366.093 363.512 366.104 364.469 366.111C364.94 366.117 365.3 366.122 365.554 366.125C365.799 366.128 365.93 366.135 365.93 366.135C365.93 366.135 365.813 366.142 365.574 366.146C365.323 366.149 364.968 366.154 364.503 366.159C363.539 366.167 362.129 366.177 360.304 366.192L360.247 366.192V366.135C360.233 356.286 360.201 334.138 360.165 308.385V308.246H360.304H360.307C362.233 308.246 364.139 308.246 365.93 308.246H366.069V308.385C366.046 324.606 366.025 339.057 366.01 349.464C365.993 354.643 365.978 358.815 365.968 361.703C365.96 363.13 365.954 364.238 365.949 365.001C365.945 365.368 365.942 365.65 365.939 365.851C365.936 366.042 365.93 366.135 365.93 366.135Z" fill="#EBEBEB"/>
<path d="M381.329 308.385H375.702V366.135H381.329V308.385Z" fill="#E0E0E0"/>
<path d="M381.329 366.135C381.329 366.135 381.323 366.03 381.32 365.833C381.318 365.627 381.314 365.339 381.31 364.964C381.305 364.194 381.299 363.075 381.291 361.635C381.281 358.739 381.267 354.556 381.249 349.364C381.234 338.982 381.214 324.566 381.19 308.385L381.329 308.524C379.538 308.524 377.632 308.524 375.705 308.525H375.702L375.841 308.386C375.805 334.138 375.773 356.287 375.759 366.136L375.702 366.079C377.513 366.093 378.912 366.104 379.869 366.111C380.339 366.117 380.699 366.122 380.953 366.125C381.199 366.128 381.329 366.135 381.329 366.135C381.329 366.135 381.213 366.142 380.974 366.146C380.723 366.149 380.367 366.154 379.902 366.159C378.938 366.167 377.528 366.177 375.703 366.192L375.647 366.192V366.135C375.633 356.286 375.601 334.138 375.564 308.385V308.246H375.704H375.707C377.633 308.246 379.539 308.246 381.33 308.246H381.469V308.385C381.445 324.606 381.425 339.057 381.409 349.464C381.392 354.643 381.378 358.815 381.369 361.703C381.36 363.13 381.354 364.238 381.349 365.001C381.345 365.368 381.343 365.65 381.34 365.851C381.336 366.042 381.329 366.135 381.329 366.135Z" fill="#EBEBEB"/>
<path d="M326.162 338.736H317.014V321.213C317.014 318.902 318.886 317.028 321.195 317.028H321.981C324.29 317.028 326.162 318.902 326.162 321.213V338.736Z" fill="#FAFAFA"/>
<path d="M326.162 338.736C326.158 338.733 326.155 338.679 326.151 338.576C326.149 338.459 326.145 338.31 326.141 338.126C326.136 337.715 326.129 337.143 326.12 336.417C326.108 334.924 326.091 332.8 326.071 330.184C326.058 327.56 326.041 324.446 326.022 320.99C325.988 320.147 325.651 319.306 325.095 318.624C324.528 317.95 323.728 317.447 322.832 317.255C322.384 317.158 321.923 317.162 321.438 317.164C320.958 317.164 320.496 317.189 320.041 317.335C319.137 317.606 318.321 318.21 317.797 319.027C317.542 319.418 317.358 319.853 317.259 320.304C317.153 320.755 317.148 321.209 317.153 321.686C317.152 322.628 317.151 323.556 317.151 324.469C317.148 326.295 317.146 328.058 317.143 329.742C317.133 333.105 317.123 336.149 317.115 338.736L317.015 338.635C319.812 338.657 322.082 338.676 323.677 338.689C324.456 338.7 325.069 338.709 325.508 338.714C325.706 338.719 325.866 338.722 325.991 338.725C326.1 338.729 326.158 338.733 326.162 338.736C326.165 338.74 326.114 338.743 326.011 338.747C325.89 338.749 325.737 338.753 325.546 338.758C325.112 338.764 324.506 338.772 323.738 338.783C322.128 338.796 319.837 338.815 317.013 338.838L316.913 338.838V338.736C316.904 336.15 316.895 333.105 316.885 329.743C316.883 328.059 316.88 326.296 316.877 324.47C316.877 323.557 316.876 322.629 316.875 321.687C316.833 320.753 316.996 319.708 317.562 318.878C318.122 318.005 318.994 317.36 319.961 317.071C320.44 316.916 320.958 316.888 321.437 316.891C321.91 316.889 322.41 316.885 322.889 316.99C323.845 317.196 324.697 317.736 325.299 318.455C325.89 319.183 326.244 320.081 326.278 320.978C326.294 324.484 326.263 327.624 326.252 330.262C326.232 332.875 326.215 334.997 326.203 336.488C326.194 337.201 326.187 337.762 326.182 338.166C326.178 338.343 326.174 338.485 326.171 338.597C326.169 338.692 326.165 338.74 326.162 338.736Z" fill="#E0E0E0"/>
<path d="M321.589 338.582C321.512 338.582 321.45 333.791 321.45 327.882C321.45 321.972 321.512 317.182 321.589 317.182C321.666 317.182 321.728 321.972 321.728 327.882C321.728 333.791 321.666 338.582 321.589 338.582Z" fill="#E0E0E0"/>
<path d="M326.162 321.966C326.162 322.043 324.114 322.105 321.588 322.105C319.062 322.105 317.014 322.043 317.014 321.966C317.014 321.89 319.061 321.827 321.588 321.827C324.114 321.827 326.162 321.889 326.162 321.966Z" fill="#E0E0E0"/>
<path d="M326.162 327.341C326.162 327.418 324.114 327.48 321.588 327.48C319.062 327.48 317.014 327.418 317.014 327.341C317.014 327.265 319.061 327.203 321.588 327.203C324.114 327.203 326.162 327.265 326.162 327.341Z" fill="#E0E0E0"/>
<path d="M326.162 332.717C326.162 332.794 324.114 332.857 321.588 332.857C319.062 332.857 317.014 332.795 317.014 332.717C317.014 332.641 319.061 332.579 321.588 332.579C324.114 332.579 326.162 332.641 326.162 332.717Z" fill="#E0E0E0"/>
<path d="M341.773 338.736H332.624V321.213C332.624 318.902 334.496 317.028 336.805 317.028H337.591C339.9 317.028 341.773 318.902 341.773 321.213V338.736Z" fill="#FAFAFA"/>
<path d="M341.773 338.736C341.769 338.733 341.766 338.679 341.762 338.576C341.759 338.459 341.756 338.31 341.752 338.126C341.747 337.715 341.739 337.143 341.73 336.417C341.719 334.924 341.702 332.8 341.682 330.184C341.668 327.56 341.652 324.446 341.633 320.99C341.598 320.147 341.262 319.306 340.706 318.624C340.139 317.95 339.339 317.447 338.443 317.255C337.995 317.158 337.534 317.162 337.048 317.164C336.569 317.164 336.106 317.189 335.651 317.335C334.747 317.606 333.932 318.21 333.407 319.027C333.153 319.418 332.968 319.853 332.87 320.304C332.764 320.755 332.759 321.209 332.763 321.686C332.762 322.628 332.761 323.556 332.761 324.469C332.758 326.295 332.756 328.058 332.753 329.742C332.743 333.105 332.733 336.149 332.725 338.736L332.625 338.635C335.422 338.657 337.693 338.676 339.287 338.689C340.066 338.7 340.679 338.709 341.118 338.714C341.317 338.719 341.476 338.722 341.601 338.725C341.71 338.729 341.768 338.733 341.773 338.736C341.777 338.74 341.725 338.743 341.621 338.747C341.501 338.749 341.348 338.753 341.157 338.758C340.723 338.764 340.117 338.772 339.348 338.783C337.738 338.796 335.447 338.815 332.623 338.838L332.523 338.838V338.736C332.514 336.15 332.505 333.105 332.495 329.743C332.493 328.059 332.49 326.296 332.487 324.47C332.487 323.557 332.486 322.629 332.485 321.687C332.443 320.753 332.606 319.708 333.172 318.878C333.732 318.005 334.604 317.36 335.571 317.071C336.05 316.916 336.568 316.888 337.047 316.891C337.52 316.889 338.02 316.885 338.499 316.99C339.455 317.196 340.307 317.736 340.909 318.455C341.5 319.183 341.854 320.081 341.888 320.978C341.904 324.484 341.873 327.624 341.862 330.262C341.842 332.875 341.824 334.997 341.813 336.488C341.804 337.201 341.797 337.762 341.792 338.166C341.788 338.343 341.784 338.485 341.781 338.597C341.779 338.692 341.776 338.74 341.773 338.736Z" fill="#E0E0E0"/>
<path d="M337.198 338.582C337.121 338.582 337.059 333.791 337.059 327.882C337.059 321.972 337.121 317.182 337.198 317.182C337.274 317.182 337.337 321.972 337.337 327.882C337.337 333.791 337.274 338.582 337.198 338.582Z" fill="#E0E0E0"/>
<path d="M341.773 321.966C341.773 322.043 339.724 322.105 337.199 322.105C334.672 322.105 332.624 322.043 332.624 321.966C332.624 321.89 334.672 321.827 337.199 321.827C339.724 321.827 341.773 321.889 341.773 321.966Z" fill="#E0E0E0"/>
<path d="M341.773 327.341C341.773 327.418 339.724 327.48 337.199 327.48C334.672 327.48 332.624 327.418 332.624 327.341C332.624 327.265 334.672 327.203 337.199 327.203C339.724 327.203 341.773 327.265 341.773 327.341Z" fill="#E0E0E0"/>
<path d="M341.773 332.717C341.773 332.794 339.724 332.857 337.199 332.857C334.672 332.857 332.624 332.795 332.624 332.717C332.624 332.641 334.672 332.579 337.199 332.579C339.724 332.579 341.773 332.641 341.773 332.717Z" fill="#E0E0E0"/>
<path d="M357.382 338.736H348.233V321.213C348.233 318.902 350.105 317.028 352.414 317.028H353.2C355.509 317.028 357.382 318.902 357.382 321.213V338.736Z" fill="#FAFAFA"/>
<path d="M357.382 338.736C357.378 338.733 357.375 338.679 357.371 338.576C357.369 338.459 357.365 338.31 357.361 338.126C357.356 337.715 357.349 337.143 357.34 336.417C357.328 334.924 357.311 332.8 357.291 330.184C357.278 327.56 357.261 324.446 357.242 320.99C357.208 320.147 356.871 319.306 356.315 318.624C355.748 317.95 354.948 317.447 354.052 317.255C353.604 317.158 353.143 317.162 352.657 317.164C352.178 317.164 351.715 317.189 351.261 317.335C350.357 317.606 349.541 318.21 349.017 319.027C348.762 319.418 348.578 319.853 348.479 320.304C348.373 320.755 348.368 321.209 348.373 321.686C348.372 322.628 348.371 323.556 348.371 324.469C348.368 326.295 348.366 328.058 348.363 329.742C348.353 333.105 348.343 336.149 348.335 338.736L348.235 338.635C351.032 338.657 353.303 338.676 354.897 338.689C355.676 338.7 356.289 338.709 356.728 338.714C356.926 338.719 357.086 338.722 357.211 338.725C357.32 338.729 357.378 338.733 357.382 338.736C357.385 338.74 357.334 338.743 357.231 338.747C357.11 338.749 356.957 338.753 356.766 338.758C356.332 338.764 355.726 338.772 354.958 338.783C353.348 338.796 351.056 338.815 348.233 338.838L348.133 338.838V338.736C348.124 336.15 348.115 333.105 348.105 329.743C348.103 328.059 348.1 326.296 348.097 324.47C348.097 323.557 348.096 322.629 348.095 321.687C348.053 320.753 348.216 319.708 348.782 318.878C349.342 318.005 350.214 317.36 351.181 317.071C351.66 316.916 352.178 316.888 352.657 316.891C353.13 316.889 353.63 316.885 354.109 316.99C355.066 317.196 355.917 317.736 356.519 318.455C357.111 319.183 357.465 320.081 357.498 320.978C357.515 324.484 357.484 327.624 357.472 330.262C357.451 332.875 357.435 334.997 357.424 336.488C357.415 337.201 357.407 337.762 357.403 338.166C357.398 338.343 357.395 338.485 357.392 338.597C357.389 338.692 357.385 338.74 357.382 338.736Z" fill="#E0E0E0"/>
<path d="M352.808 338.582C352.732 338.582 352.67 333.791 352.67 327.882C352.67 321.972 352.732 317.182 352.808 317.182C352.885 317.182 352.948 321.972 352.948 327.882C352.947 333.791 352.885 338.582 352.808 338.582Z" fill="#E0E0E0"/>
<path d="M357.382 321.966C357.382 322.043 355.333 322.105 352.808 322.105C350.281 322.105 348.233 322.043 348.233 321.966C348.233 321.89 350.281 321.827 352.808 321.827C355.333 321.827 357.382 321.889 357.382 321.966Z" fill="#E0E0E0"/>
<path d="M357.382 327.341C357.382 327.418 355.333 327.48 352.808 327.48C350.281 327.48 348.233 327.418 348.233 327.341C348.233 327.265 350.281 327.203 352.808 327.203C355.333 327.203 357.382 327.265 357.382 327.341Z" fill="#E0E0E0"/>
<path d="M357.382 332.717C357.382 332.794 355.333 332.857 352.808 332.857C350.281 332.857 348.233 332.795 348.233 332.717C348.233 332.641 350.281 332.579 352.808 332.579C355.333 332.579 357.382 332.641 357.382 332.717Z" fill="#E0E0E0"/>
<path d="M326.162 350.928H318.998V365.149H326.162V350.928Z" fill="#E0E0E0"/>
<path d="M340.194 350.928H333.031V365.149H340.194V350.928Z" fill="#E0E0E0"/>
<path d="M354.225 350.928H347.061V365.149H354.225V350.928Z" fill="#E0E0E0"/>
<path d="M383.175 365.149H288.692V368.145H383.175V365.149Z" fill="#E0E0E0"/>
<path d="M383.908 368.101H286.62V371.097H383.908V368.101Z" fill="#F5F5F5"/>
<path d="M387.619 374.093H282.247V377.089H387.619V374.093Z" fill="#F5F5F5"/>
<path d="M391.002 380.059H278.356V383.055H391.002V380.059Z" fill="#F5F5F5"/>
<path d="M385.633 371.096H284.292V374.093H385.633V371.096Z" fill="#E0E0E0"/>
<path d="M389.138 377.088H280.374V380.085H389.138V377.088Z" fill="#E0E0E0"/>
<path d="M382.365 308.385C382.365 308.462 361.669 308.525 336.146 308.525C310.614 308.525 289.923 308.463 289.923 308.385C289.923 308.309 310.614 308.247 336.146 308.247C361.669 308.247 382.365 308.309 382.365 308.385Z" fill="#E0E0E0"/>
<path d="M383.621 306.899C383.621 306.976 362.311 307.038 336.031 307.038C309.742 307.038 288.437 306.976 288.437 306.899C288.437 306.822 309.742 306.76 336.031 306.76C362.312 306.759 383.621 306.822 383.621 306.899Z" fill="#EBEBEB"/>
<path d="M383.737 304.018C383.737 304.095 362.428 304.157 336.147 304.157C309.858 304.157 288.553 304.095 288.553 304.018C288.553 303.941 309.858 303.878 336.147 303.878C362.427 303.878 383.737 303.941 383.737 304.018Z" fill="#EBEBEB"/>
<path d="M383.737 302.163C383.737 302.24 362.428 302.303 336.147 302.303C309.858 302.303 288.553 302.241 288.553 302.163C288.553 302.087 309.858 302.024 336.147 302.024C362.427 302.024 383.737 302.087 383.737 302.163Z" fill="#EBEBEB"/>
<path d="M383.239 301.217C383.164 301.233 361.93 301.354 335.649 301.356C309.6 301.358 289.167 301.304 288.054 301.217C287.978 301.211 309.359 301.108 335.649 301.078C362.876 301.046 383.666 301.126 383.239 301.217Z" fill="#EBEBEB"/>
<path d="M381.697 365.034C381.697 365.111 360.946 365.173 335.356 365.173C309.756 365.173 289.01 365.111 289.01 365.034C289.01 364.957 309.756 364.895 335.356 364.895C360.946 364.895 381.697 364.957 381.697 365.034Z" fill="#E0E0E0"/>
<path d="M381.697 367.999C381.697 368.076 360.946 368.139 335.356 368.139C309.756 368.139 289.01 368.077 289.01 367.999C289.01 367.923 309.756 367.86 335.356 367.86C360.946 367.86 381.697 367.923 381.697 367.999Z" fill="#E0E0E0"/>
<path d="M381.697 370.965C381.697 371.041 359.94 371.133 333.105 371.17C306.263 371.206 284.509 371.174 284.509 371.097C284.509 371.02 306.263 370.928 333.105 370.891C359.939 370.855 381.697 370.888 381.697 370.965Z" fill="#E0E0E0"/>
<path d="M381.388 374.093C381.388 374.17 359.193 374.232 331.82 374.232C304.437 374.232 282.247 374.17 282.247 374.093C282.247 374.016 304.437 373.954 331.82 373.954C359.193 373.953 381.388 374.016 381.388 374.093Z" fill="#E0E0E0"/>
<path d="M381.695 377.088C381.695 377.165 359.084 377.227 331.199 377.227C303.304 377.227 280.697 377.165 280.697 377.088C280.697 377.012 303.304 376.949 331.199 376.949C359.084 376.95 381.695 377.012 381.695 377.088Z" fill="#E0E0E0"/>
<path d="M381.697 380.085C381.697 380.162 358.562 380.224 330.029 380.224C301.487 380.224 278.357 380.162 278.357 380.085C278.357 380.008 301.487 379.946 330.029 379.946C358.561 379.945 381.697 380.008 381.697 380.085Z" fill="#E0E0E0"/>
<path d="M381.697 383.054C381.697 383.131 360.946 383.194 335.356 383.194C309.756 383.194 289.01 383.132 289.01 383.054C289.01 382.978 309.756 382.916 335.356 382.916C360.946 382.916 381.697 382.978 381.697 383.054Z" fill="#E0E0E0"/>
<path d="M449.897 299.952L472.012 288.556L494.013 299.952H449.897Z" fill="#EBEBEB"/>
<path d="M494.012 299.952H449.896V302.499H494.012V299.952Z" fill="#E0E0E0"/>
<path d="M493.476 302.499H450.572V303.35H493.476V302.499Z" fill="#E0E0E0"/>
<path d="M494.055 302.499C494.055 302.576 484.169 302.638 471.977 302.638C459.78 302.638 449.896 302.576 449.896 302.499C449.896 302.423 459.78 302.36 471.977 302.36C484.169 302.36 494.055 302.423 494.055 302.499Z" fill="#EBEBEB"/>
<path d="M493.511 303.35C493.511 303.427 483.898 303.49 472.043 303.49C460.184 303.49 450.573 303.427 450.573 303.35C450.573 303.273 460.184 303.211 472.043 303.211C483.898 303.211 493.511 303.273 493.511 303.35Z" fill="#EBEBEB"/>
<path d="M468.802 312.435H459.854V327.829H468.802V312.435Z" fill="#EBEBEB"/>
<path d="M467.812 313.56H460.797V326.955H467.812V313.56Z" fill="#FAFAFA"/>
<path d="M464.163 327.015C464.086 327.015 464.023 323.995 464.023 320.271C464.023 316.546 464.085 313.527 464.163 313.527C464.239 313.527 464.302 316.546 464.302 320.271C464.302 323.995 464.24 327.015 464.163 327.015Z" fill="#E0E0E0"/>
<path d="M467.812 317.599C467.812 317.676 466.242 317.738 464.305 317.738C462.367 317.738 460.797 317.676 460.797 317.599C460.797 317.522 462.367 317.46 464.305 317.46C466.241 317.46 467.812 317.522 467.812 317.599Z" fill="#E0E0E0"/>
<path d="M467.812 322.328C467.812 322.405 466.242 322.467 464.305 322.467C462.367 322.467 460.797 322.405 460.797 322.328C460.797 322.252 462.367 322.189 464.305 322.189C466.241 322.189 467.812 322.251 467.812 322.328Z" fill="#E0E0E0"/>
<path d="M484.315 312.435H475.367V327.829H484.315V312.435Z" fill="#EBEBEB"/>
<path d="M483.323 313.56H476.309V326.955H483.323V313.56Z" fill="#FAFAFA"/>
<path d="M479.676 327.015C479.6 327.015 479.538 323.995 479.538 320.271C479.538 316.546 479.6 313.527 479.676 313.527C479.753 313.527 479.815 316.546 479.815 320.271C479.815 323.995 479.753 327.015 479.676 327.015Z" fill="#E0E0E0"/>
<path d="M483.323 317.599C483.323 317.676 481.753 317.738 479.816 317.738C477.879 317.738 476.309 317.676 476.309 317.599C476.309 317.522 477.879 317.46 479.816 317.46C481.753 317.46 483.323 317.522 483.323 317.599Z" fill="#E0E0E0"/>
<path d="M483.323 322.328C483.323 322.405 481.753 322.467 479.816 322.467C477.879 322.467 476.309 322.405 476.309 322.328C476.309 322.252 477.879 322.189 479.816 322.189C481.753 322.189 483.323 322.251 483.323 322.328Z" fill="#E0E0E0"/>
<path d="M468.802 331.887H459.854V347.281H468.802V331.887Z" fill="#EBEBEB"/>
<path d="M467.812 333.012H460.797V346.407H467.812V333.012Z" fill="#FAFAFA"/>
<path d="M464.163 346.467C464.086 346.467 464.023 343.447 464.023 339.723C464.023 335.998 464.085 332.979 464.163 332.979C464.239 332.979 464.302 335.998 464.302 339.723C464.302 343.447 464.24 346.467 464.163 346.467Z" fill="#E0E0E0"/>
<path d="M467.812 337.051C467.812 337.128 466.242 337.19 464.305 337.19C462.367 337.19 460.797 337.128 460.797 337.051C460.797 336.974 462.367 336.912 464.305 336.912C466.241 336.912 467.812 336.974 467.812 337.051Z" fill="#E0E0E0"/>
<path d="M467.812 341.78C467.812 341.856 466.242 341.919 464.305 341.919C462.367 341.919 460.797 341.857 460.797 341.78C460.797 341.703 462.367 341.641 464.305 341.641C466.241 341.641 467.812 341.703 467.812 341.78Z" fill="#E0E0E0"/>
<path d="M484.315 331.887H475.368V347.281H484.315V331.887Z" fill="#EBEBEB"/>
<path d="M502.258 380.767C502.258 380.866 430.58 380.946 342.18 380.946C253.75 380.946 182.087 380.866 182.087 380.767C182.087 380.668 253.75 380.587 342.18 380.587C430.58 380.586 502.258 380.667 502.258 380.767Z" fill="#E0E0E0"/>
<path d="M483.324 333.012H476.31V346.407H483.324V333.012Z" fill="#FAFAFA"/>
<path d="M479.677 346.467C479.6 346.467 479.538 343.447 479.538 339.723C479.538 335.998 479.6 332.979 479.677 332.979C479.753 332.979 479.816 335.998 479.816 339.723C479.816 343.447 479.753 346.467 479.677 346.467Z" fill="#E0E0E0"/>
<path d="M483.324 337.051C483.324 337.128 481.754 337.19 479.817 337.19C477.88 337.19 476.31 337.128 476.31 337.051C476.31 336.974 477.88 336.912 479.817 336.912C481.754 336.912 483.324 336.974 483.324 337.051Z" fill="#E0E0E0"/>
<path d="M483.324 341.78C483.324 341.856 481.754 341.919 479.817 341.919C477.88 341.919 476.31 341.857 476.31 341.78C476.31 341.703 477.88 341.641 479.817 341.641C481.754 341.641 483.324 341.703 483.324 341.78Z" fill="#E0E0E0"/>
<path d="M398.708 331.198H389.761V346.592H398.708V331.198Z" fill="#F5F5F5"/>
<path d="M397.716 332.323H390.702V345.718H397.716V332.323Z" fill="#FAFAFA"/>
<path d="M394.068 345.778C393.992 345.778 393.929 342.758 393.929 339.034C393.929 335.309 393.991 332.29 394.068 332.29C394.145 332.29 394.207 335.309 394.207 339.034C394.207 342.758 394.145 345.778 394.068 345.778Z" fill="#E0E0E0"/>
<path d="M397.716 336.362C397.716 336.439 396.146 336.501 394.209 336.501C392.272 336.501 390.702 336.439 390.702 336.362C390.702 336.285 392.272 336.222 394.209 336.222C396.146 336.223 397.716 336.285 397.716 336.362Z" fill="#E0E0E0"/>
<path d="M397.716 341.091C397.716 341.168 396.146 341.23 394.209 341.23C392.272 341.23 390.702 341.168 390.702 341.091C390.702 341.015 392.272 340.952 394.209 340.952C396.146 340.952 397.716 341.014 397.716 341.091Z" fill="#E0E0E0"/>
<path d="M414.927 331.198H405.98V346.592H414.927V331.198Z" fill="#F5F5F5"/>
<path d="M413.936 332.323H406.922V345.718H413.936V332.323Z" fill="#FAFAFA"/>
<path d="M410.289 345.778C410.212 345.778 410.149 342.758 410.149 339.034C410.149 335.309 410.211 332.29 410.289 332.29C410.365 332.29 410.427 335.309 410.427 339.034C410.427 342.758 410.365 345.778 410.289 345.778Z" fill="#E0E0E0"/>
<path d="M413.936 336.362C413.936 336.439 412.366 336.501 410.429 336.501C408.492 336.501 406.922 336.439 406.922 336.362C406.922 336.285 408.492 336.222 410.429 336.222C412.366 336.223 413.936 336.285 413.936 336.362Z" fill="#E0E0E0"/>
<path d="M413.936 341.091C413.936 341.168 412.366 341.23 410.429 341.23C408.492 341.23 406.922 341.168 406.922 341.091C406.922 341.015 408.492 340.952 410.429 340.952C412.366 340.952 413.936 341.014 413.936 341.091Z" fill="#E0E0E0"/>
<path d="M431.147 331.198H422.2V346.592H431.147V331.198Z" fill="#F5F5F5"/>
<path d="M430.157 332.323H423.143V345.718H430.157V332.323Z" fill="#FAFAFA"/>
<path d="M426.508 345.778C426.431 345.778 426.369 342.758 426.369 339.034C426.369 335.309 426.431 332.29 426.508 332.29C426.585 332.29 426.647 335.309 426.647 339.034C426.647 342.758 426.585 345.778 426.508 345.778Z" fill="#E0E0E0"/>
<path d="M430.157 336.362C430.157 336.439 428.587 336.501 426.65 336.501C424.713 336.501 423.143 336.439 423.143 336.362C423.143 336.285 424.713 336.222 426.65 336.222C428.587 336.223 430.157 336.285 430.157 336.362Z" fill="#E0E0E0"/>
<path d="M430.157 341.091C430.157 341.168 428.587 341.23 426.65 341.23C424.713 341.23 423.143 341.168 423.143 341.091C423.143 341.015 424.713 340.952 426.65 340.952C428.587 340.952 430.157 341.014 430.157 341.091Z" fill="#E0E0E0"/>
<path d="M447.368 331.198H438.42V346.592H447.368V331.198Z" fill="#F5F5F5"/>
<path d="M446.375 332.323H439.361V345.718H446.375V332.323Z" fill="#FAFAFA"/>
<path d="M442.727 345.778C442.651 345.778 442.589 342.758 442.589 339.034C442.589 335.309 442.651 332.29 442.727 332.29C442.804 332.29 442.866 335.309 442.866 339.034C442.866 342.758 442.804 345.778 442.727 345.778Z" fill="#E0E0E0"/>
<path d="M446.375 336.362C446.375 336.439 444.805 336.501 442.868 336.501C440.931 336.501 439.361 336.439 439.361 336.362C439.361 336.285 440.931 336.222 442.868 336.222C444.806 336.223 446.375 336.285 446.375 336.362Z" fill="#E0E0E0"/>
<path d="M446.375 341.091C446.375 341.168 444.805 341.23 442.868 341.23C440.931 341.23 439.361 341.168 439.361 341.091C439.361 341.015 440.931 340.952 442.868 340.952C444.806 340.952 446.375 341.014 446.375 341.091Z" fill="#E0E0E0"/>
<path d="M494.131 351.013H381.035V353.619H494.131V351.013Z" fill="#E0E0E0"/>
<path d="M493.456 353.533H381.035V355.278H493.456V353.533Z" fill="#E0E0E0"/>
<path d="M381.035 353.743C381.035 353.666 406.242 353.604 437.329 353.604C468.427 353.604 493.628 353.666 493.628 353.743C493.628 353.82 468.426 353.882 437.329 353.882C406.242 353.882 381.035 353.82 381.035 353.743Z" fill="#EBEBEB"/>
<path d="M381.035 355.278C381.035 355.202 406.242 355.139 437.329 355.139C468.427 355.139 493.628 355.201 493.628 355.278C493.628 355.355 468.426 355.417 437.329 355.417C406.242 355.417 381.035 355.355 381.035 355.278Z" fill="#EBEBEB"/>
<path d="M381.035 351.013C381.035 350.937 406.242 350.874 437.329 350.874C468.427 350.874 493.628 350.936 493.628 351.013C493.628 351.09 468.426 351.152 437.329 351.152C406.242 351.153 381.035 351.09 381.035 351.013Z" fill="#EBEBEB"/>
<path d="M403.409 378.028H394.005V362.337C394.005 359.926 395.958 357.972 398.366 357.972H399.047C401.456 357.972 403.408 359.926 403.408 362.337L403.409 378.028Z" fill="#E0E0E0"/>
<path d="M402.078 376.58H395.34V362.547C395.34 360.819 396.739 359.419 398.465 359.419H398.953C400.679 359.419 402.078 360.819 402.078 362.547V376.58Z" fill="#FAFAFA"/>
<path d="M398.708 376.58C398.632 376.58 398.569 372.739 398.569 368C398.569 363.26 398.631 359.419 398.708 359.419C398.785 359.419 398.847 363.26 398.847 368C398.848 372.739 398.786 376.58 398.708 376.58Z" fill="#E0E0E0"/>
<path d="M402.035 364.766C402.035 364.842 400.532 364.904 398.678 364.904C396.824 364.904 395.321 364.842 395.321 364.766C395.321 364.689 396.824 364.627 398.678 364.627C400.532 364.626 402.035 364.688 402.035 364.766Z" fill="#E0E0E0"/>
<path d="M402.035 370.385C402.035 370.461 400.532 370.523 398.678 370.523C396.824 370.523 395.321 370.461 395.321 370.385C395.321 370.308 396.824 370.245 398.678 370.245C400.532 370.246 402.035 370.308 402.035 370.385Z" fill="#E0E0E0"/>
<path d="M421.694 378.028H412.29V362.337C412.29 359.926 414.243 357.972 416.652 357.972H417.333C419.742 357.972 421.694 359.926 421.694 362.337V378.028Z" fill="#E0E0E0"/>
<path d="M420.362 376.58H413.624V362.547C413.624 360.819 415.023 359.419 416.749 359.419H417.237C418.963 359.419 420.362 360.819 420.362 362.547V376.58Z" fill="#FAFAFA"/>
<path d="M416.993 376.58C416.916 376.58 416.853 372.739 416.853 368C416.853 363.26 416.915 359.419 416.993 359.419C417.069 359.419 417.131 363.26 417.131 368C417.131 372.739 417.069 376.58 416.993 376.58Z" fill="#E0E0E0"/>
<path d="M420.317 364.766C420.317 364.842 418.814 364.904 416.961 364.904C415.107 364.904 413.604 364.842 413.604 364.766C413.604 364.689 415.107 364.627 416.961 364.627C418.814 364.626 420.317 364.688 420.317 364.766Z" fill="#E0E0E0"/>
<path d="M420.317 370.385C420.317 370.461 418.814 370.523 416.961 370.523C415.107 370.523 413.604 370.461 413.604 370.385C413.604 370.308 415.107 370.245 416.961 370.245C418.814 370.246 420.317 370.308 420.317 370.385Z" fill="#E0E0E0"/>
<path d="M439.976 378.028H430.573V362.337C430.573 359.926 432.525 357.972 434.935 357.972H435.615C438.024 357.972 439.976 359.926 439.976 362.337V378.028Z" fill="#E0E0E0"/>
<path d="M438.645 376.58H431.906V362.547C431.906 360.819 433.306 359.419 435.032 359.419H435.52C437.245 359.419 438.645 360.819 438.645 362.547V376.58Z" fill="#FAFAFA"/>
<path d="M435.276 376.58C435.2 376.58 435.137 372.739 435.137 368C435.137 363.26 435.199 359.419 435.276 359.419C435.353 359.419 435.415 363.26 435.415 368C435.415 372.739 435.353 376.58 435.276 376.58Z" fill="#E0E0E0"/>
<path d="M438.602 364.766C438.602 364.842 437.099 364.904 435.246 364.904C433.391 364.904 431.888 364.842 431.888 364.766C431.888 364.689 433.391 364.627 435.246 364.627C437.099 364.626 438.602 364.688 438.602 364.766Z" fill="#E0E0E0"/>
<path d="M438.602 370.385C438.602 370.461 437.099 370.523 435.246 370.523C433.391 370.523 431.888 370.461 431.888 370.385C431.888 370.308 433.391 370.245 435.246 370.245C437.099 370.246 438.602 370.308 438.602 370.385Z" fill="#E0E0E0"/>
<path d="M458.261 378.028H448.857V362.337C448.857 359.926 450.81 357.972 453.219 357.972H453.899C456.308 357.972 458.261 359.926 458.261 362.337V378.028Z" fill="#E0E0E0"/>
<path d="M456.93 376.58H450.192V362.547C450.192 360.819 451.591 359.419 453.317 359.419H453.805C455.531 359.419 456.93 360.819 456.93 362.547V376.58Z" fill="#FAFAFA"/>
<path d="M453.56 376.58C453.484 376.58 453.421 372.739 453.421 368C453.421 363.26 453.483 359.419 453.56 359.419C453.637 359.419 453.699 363.26 453.699 368C453.7 372.739 453.637 376.58 453.56 376.58Z" fill="#E0E0E0"/>
<path d="M456.887 364.766C456.887 364.842 455.384 364.904 453.53 364.904C451.676 364.904 450.173 364.842 450.173 364.766C450.173 364.689 451.676 364.627 453.53 364.627C455.383 364.626 456.887 364.688 456.887 364.766Z" fill="#E0E0E0"/>
<path d="M456.887 370.385C456.887 370.461 455.384 370.523 453.53 370.523C451.676 370.523 450.173 370.461 450.173 370.385C450.173 370.308 451.676 370.245 453.53 370.245C455.383 370.246 456.887 370.308 456.887 370.385Z" fill="#E0E0E0"/>
<path d="M476.544 378.028H467.141V362.337C467.141 359.926 469.094 357.972 471.502 357.972H472.182C474.591 357.972 476.544 359.926 476.544 362.337L476.544 378.028Z" fill="#E0E0E0"/>
<path d="M475.212 376.58H468.474V362.547C468.474 360.819 469.873 359.419 471.599 359.419H472.087C473.813 359.419 475.212 360.819 475.212 362.547V376.58Z" fill="#FAFAFA"/>
<path d="M471.844 376.58C471.767 376.58 471.704 372.739 471.704 368C471.704 363.26 471.767 359.419 471.844 359.419C471.92 359.419 471.983 363.26 471.983 368C471.983 372.739 471.92 376.58 471.844 376.58Z" fill="#E0E0E0"/>
<path d="M475.169 364.766C475.169 364.842 473.666 364.904 471.813 364.904C469.958 364.904 468.455 364.842 468.455 364.766C468.455 364.689 469.958 364.627 471.813 364.627C473.666 364.626 475.169 364.688 475.169 364.766Z" fill="#E0E0E0"/>
<path d="M475.169 370.385C475.169 370.461 473.666 370.523 471.813 370.523C469.958 370.523 468.455 370.461 468.455 370.385C468.455 370.308 469.958 370.245 471.813 370.245C473.666 370.246 475.169 370.308 475.169 370.385Z" fill="#E0E0E0"/>
<path d="M452.28 320.838H379.909V323.386H452.28V320.838Z" fill="#E0E0E0"/>
<path d="M451.403 323.386H381.019V324.237H451.403V323.386Z" fill="#E0E0E0"/>
<path d="M452.281 320.838C452.281 320.838 452.148 320.845 451.9 320.848C451.644 320.85 451.278 320.854 450.801 320.858C449.831 320.863 448.415 320.869 446.594 320.878C442.939 320.888 437.661 320.902 431.127 320.92C418.069 320.934 399.998 320.955 379.91 320.977L380.049 320.838C380.049 321.643 380.049 322.511 380.049 323.382V323.386L379.91 323.247C414.905 323.247 444.289 323.291 452.28 323.352L452.245 323.387C452.254 322.523 452.261 321.893 452.265 321.467C452.272 321.046 452.281 320.838 452.281 320.838C452.281 320.838 452.289 321.03 452.295 321.446C452.299 321.876 452.306 322.513 452.315 323.385V323.42H452.281C444.289 323.48 414.906 323.525 379.911 323.525H379.771V323.385V323.382C379.771 322.51 379.771 321.642 379.771 320.838V320.698H379.91C400.038 320.721 418.145 320.741 431.23 320.756C437.75 320.774 443.016 320.788 446.664 320.798C448.472 320.806 449.876 320.813 450.839 320.818C451.308 320.822 451.667 320.825 451.919 320.827C452.161 320.832 452.281 320.838 452.281 320.838Z" fill="#EBEBEB"/>
<path d="M381.019 323.386C381.024 323.386 381.029 323.456 381.034 323.598C381.038 323.755 381.043 323.965 381.049 324.237L381.019 324.207C384.498 324.144 398.949 324.097 416.238 324.097C433.531 324.097 447.979 324.144 451.459 324.207L451.429 324.239C451.418 323.966 451.409 323.755 451.402 323.598C451.397 323.456 451.398 323.386 451.403 323.386C451.407 323.385 451.417 323.456 451.432 323.596C451.445 323.753 451.464 323.963 451.488 324.235L451.491 324.266L451.458 324.266C447.978 324.329 433.531 324.376 416.238 324.376C398.948 324.376 384.497 324.329 381.019 324.266L380.988 324.266L380.989 324.237C380.995 323.964 381 323.754 381.003 323.598C381.009 323.456 381.014 323.386 381.019 323.386Z" fill="#EBEBEB"/>
<path d="M452.28 320.838H379.909L381.317 314.377H451.103L452.28 320.838Z" fill="#EBEBEB"/>
<path d="M288.069 298.941L285.697 296.525L335.927 271.772L386.843 296.783L384.345 298.941L335.884 276.116L288.069 298.941Z" fill="#EBEBEB"/>
<path d="M335.644 295.727C339.51 295.727 342.643 292.59 342.643 288.721C342.643 284.852 339.51 281.716 335.644 281.716C331.779 281.716 328.646 284.852 328.646 288.721C328.646 292.59 331.779 295.727 335.644 295.727Z" fill="#E0E0E0"/>
<path d="M193.564 348.619H134.379C126.533 348.619 120.113 342.194 120.113 334.34V303.489C120.113 295.635 126.533 289.21 134.379 289.21H193.564C201.41 289.21 207.83 295.635 207.83 303.489V334.34C207.83 342.194 201.41 348.619 193.564 348.619Z" fill="#2525AD"/>
<path d="M154.558 318.915V308.035L163.973 313.475L173.386 318.915L163.973 324.356L154.558 329.795V318.915Z" fill="#D5CBFB"/>
<path d="M271.043 264.638C270.483 263.142 269.912 261.625 268.97 260.334C268.029 259.044 266.652 257.988 265.067 257.793C263.483 257.599 261.727 258.455 261.21 259.968C260.983 256.56 260.501 253.064 258.796 250.106C257.092 247.147 253.913 244.823 250.507 245.032C247.296 245.228 244.547 247.616 243.019 250.449C241.492 253.283 240.967 256.534 240.466 259.714C239.249 258.219 236.678 258.689 235.408 260.139C234.138 261.589 233.816 263.615 233.546 265.525H271.859L271.043 264.638Z" fill="#EBEBEB"/>
<path d="M433.212 269.95C432.652 268.453 432.08 266.936 431.139 265.646C430.197 264.355 428.82 263.299 427.235 263.104C425.651 262.91 423.895 263.766 423.379 265.279C423.152 261.871 422.67 258.376 420.965 255.417C419.261 252.458 416.081 250.134 412.676 250.343C409.465 250.539 406.715 252.927 405.188 255.761C403.66 258.594 403.136 261.845 402.635 265.025C401.418 263.53 398.847 264 397.577 265.45C396.307 266.9 395.985 268.927 395.715 270.836H434.028L433.212 269.95Z" fill="#F5F5F5"/>
<path d="M302.196 233.419C301.832 232.447 301.462 231.462 300.851 230.625C300.239 229.787 299.346 229.101 298.317 228.974C297.288 228.849 296.149 229.404 295.813 230.386C295.666 228.174 295.352 225.904 294.246 223.984C293.14 222.063 291.075 220.554 288.865 220.689C286.78 220.817 284.995 222.367 284.003 224.207C283.012 226.047 282.671 228.157 282.346 230.222C281.555 229.252 279.887 229.557 279.062 230.498C278.237 231.439 278.028 232.755 277.853 233.995H302.727L302.196 233.419Z" fill="#F5F5F5"/>
<path d="M216.898 235.703C216.684 235.131 216.466 234.551 216.105 234.057C215.745 233.564 215.218 233.159 214.612 233.085C214.006 233.011 213.334 233.338 213.137 233.917C213.05 232.613 212.865 231.276 212.213 230.145C211.562 229.013 210.345 228.124 209.043 228.203C207.814 228.279 206.762 229.192 206.178 230.276C205.593 231.36 205.393 232.603 205.201 233.82C204.736 233.248 203.753 233.428 203.266 233.983C202.781 234.537 202.658 235.313 202.554 236.043H217.211L216.898 235.703Z" fill="#F5F5F5"/>
<path d="M389.237 230.685C388.873 229.713 388.503 228.728 387.892 227.89C387.28 227.053 386.386 226.367 385.358 226.24C384.329 226.115 383.189 226.67 382.854 227.652C382.706 225.44 382.393 223.17 381.287 221.249C380.181 219.329 378.116 217.82 375.905 217.955C373.82 218.083 372.035 219.633 371.044 221.473C370.052 223.312 369.711 225.423 369.386 227.488C368.596 226.518 366.927 226.823 366.102 227.764C365.277 228.705 365.068 230.021 364.893 231.261H389.767L389.237 230.685Z" fill="#EBEBEB"/>
<path d="M481.405 240.781C481.141 240.076 480.872 239.362 480.429 238.754C479.985 238.147 479.337 237.649 478.591 237.557C477.844 237.466 477.018 237.869 476.775 238.581C476.668 236.976 476.441 235.33 475.638 233.937C474.836 232.544 473.339 231.45 471.735 231.548C470.224 231.641 468.928 232.765 468.209 234.099C467.49 235.434 467.243 236.964 467.007 238.462C466.434 237.758 465.223 237.979 464.625 238.662C464.027 239.344 463.876 240.299 463.749 241.198H481.789L481.405 240.781Z" fill="#EBEBEB"/>
</g>
<defs>
<clipPath id="clip0_0_3094">
<rect width="665" height="549" fill="white"/>
</clipPath>
</defs>
</svg>
