<svg width="665" height="443" viewBox="0 0 665 443" fill="none" xmlns="http://www.w3.org/2000/svg">
<g clip-path="url(#clip0_1_4917)">
<path d="M617.695 190.162H43.8679C41.6091 190.162 40.7574 187.199 42.6644 185.995L144.125 136.624H522.011L618.732 186.662C620.324 187.717 619.584 190.162 617.695 190.162Z" fill="white" stroke="#66B0F0" stroke-width="1.19608" stroke-miterlimit="10" stroke-linejoin="round"/>
<path d="M602.385 184.662H58.4588C55.9408 184.662 54.978 181.347 57.1257 179.995L144.682 137.179H521.142L603.773 180.032C605.847 181.402 604.884 184.662 602.385 184.662Z" fill="#D0F0E4"/>
<path d="M73.696 190.162L36.0186 407.131" stroke="#66B0F0" stroke-width="1.19608" stroke-miterlimit="10" stroke-linecap="round"/>
<path d="M93.3406 190.162L131.018 407.131" stroke="#66B0F0" stroke-width="1.19608" stroke-miterlimit="10" stroke-linecap="round"/>
<path d="M566.687 190.161L529.01 407.13" stroke="#66B0F0" stroke-width="1.19608" stroke-miterlimit="10" stroke-linecap="round"/>
<path d="M586.332 190.161L624.009 407.13" stroke="#66B0F0" stroke-width="1.19608" stroke-miterlimit="10" stroke-linecap="round"/>
<path d="M143.474 128.716L138.142 166.476C137.827 168.717 135.92 170.365 133.661 170.365H123.237C120.979 170.365 119.072 168.698 118.757 166.476L113.425 128.716C113.425 132.105 120.145 134.845 128.44 134.845C136.753 134.845 143.474 132.086 143.474 128.716Z" fill="white" stroke="#66B0F0" stroke-width="1.19608" stroke-miterlimit="10" stroke-linejoin="round"/>
<path d="M140.121 132.753L135.363 166.18C135.011 168.68 132.845 170.55 130.327 170.55H126.753C124.235 170.55 122.069 168.68 121.717 166.18L116.959 132.846C117.329 133.012 117.737 133.16 118.144 133.308L122.81 166.032C123.069 167.828 124.513 169.217 126.29 169.421C126.439 169.439 126.587 169.458 126.753 169.458H130.327C130.549 169.458 130.771 169.439 130.975 169.402C132.659 169.124 134.011 167.772 134.252 166.032L138.917 133.234C139.362 133.086 139.751 132.92 140.121 132.753Z" fill="#66B0F0"/>
<path d="M135.215 134.235L130.975 169.402L130.92 169.884C130.883 170.162 130.642 170.365 130.364 170.365C130.346 170.365 130.327 170.365 130.29 170.365C129.976 170.328 129.772 170.051 129.809 169.754L129.846 169.458L134.067 134.438C134.475 134.364 134.845 134.29 135.215 134.235Z" fill="#66B0F0"/>
<path d="M126.98 170.365C126.961 170.365 126.943 170.365 126.906 170.365C126.628 170.365 126.387 170.161 126.35 169.883L126.295 169.421L122.055 134.308C122.425 134.383 122.814 134.438 123.203 134.494L127.424 169.458L127.461 169.754C127.498 170.05 127.276 170.328 126.98 170.365Z" fill="#66B0F0"/>
<path d="M144.012 128.716C144.012 130.271 142.549 131.679 140.142 132.772C139.772 132.938 139.365 133.105 138.957 133.253C137.847 133.642 136.606 133.994 135.236 134.253C134.866 134.327 134.477 134.383 134.088 134.457C132.477 134.698 130.718 134.846 128.885 134.864C128.737 134.864 128.608 134.864 128.46 134.864C128.256 134.864 128.052 134.864 127.849 134.864C126.219 134.846 124.664 134.716 123.22 134.512C122.831 134.457 122.461 134.401 122.072 134.327C120.646 134.068 119.332 133.735 118.165 133.327C117.758 133.179 117.351 133.031 116.98 132.864C114.444 131.772 112.907 130.327 112.907 128.734C112.907 128.605 112.926 128.475 112.944 128.346C113.463 125.142 120.202 122.623 128.46 122.623C136.717 122.623 143.475 125.16 143.975 128.346C143.993 128.457 144.012 128.586 144.012 128.716Z" fill="#66B0F0"/>
<path d="M129.108 169.328C129.108 169.365 129.108 169.421 129.089 169.458C129.034 169.698 128.812 169.884 128.552 169.884C128.293 169.884 128.071 169.698 128.015 169.458C127.997 169.421 127.997 169.384 127.997 169.347L127.812 135.049C127.812 134.975 127.83 134.92 127.849 134.846C128.052 134.846 128.256 134.846 128.46 134.846C128.608 134.846 128.756 134.846 128.886 134.846C128.904 134.901 128.923 134.957 128.923 135.031L129.108 169.328Z" fill="#66B0F0"/>
<path d="M128.55 133.716C125.255 133.624 122.237 133.124 119.793 132.327L111.054 95.6781H119.478L128.55 133.716Z" fill="#FFCF2D"/>
<path d="M120.569 100.307H117.125C116.866 100.307 116.663 100.104 116.663 99.8444C116.663 99.5852 116.866 99.3815 117.125 99.3815H120.347L120.569 100.307Z" fill="white"/>
<path d="M121.495 104.197H118.051C117.792 104.197 117.588 103.993 117.588 103.734C117.588 103.474 117.792 103.271 118.051 103.271H121.273L121.495 104.197Z" fill="white"/>
<path d="M122.419 108.086H118.975C118.716 108.086 118.512 107.882 118.512 107.623C118.512 107.363 118.716 107.16 118.975 107.16H122.197L122.419 108.086Z" fill="white"/>
<path d="M123.365 111.974H119.922C119.662 111.974 119.459 111.771 119.459 111.511C119.459 111.252 119.662 111.048 119.922 111.048H123.143L123.365 111.974Z" fill="white"/>
<path d="M124.29 115.864H120.846C120.587 115.864 120.383 115.66 120.383 115.401C120.383 115.142 120.587 114.938 120.846 114.938H124.067L124.29 115.864Z" fill="white"/>
<path d="M125.215 119.753H121.938C121.679 119.753 121.475 119.549 121.475 119.29C121.475 119.03 121.679 118.827 121.938 118.827H124.993L125.215 119.753Z" fill="white"/>
<path d="M126.143 123.642H122.681C122.422 123.642 122.218 123.438 122.218 123.179C122.218 122.919 122.422 122.716 122.681 122.716H125.921L126.143 123.642Z" fill="white"/>
<path d="M127.066 127.531H123.603C123.344 127.531 123.141 127.327 123.141 127.068C123.141 126.808 123.344 126.605 123.603 126.605H126.844L127.066 127.531Z" fill="white"/>
<path d="M127.993 131.401C127.956 131.42 127.919 131.42 127.863 131.42H124.345C124.086 131.42 123.882 131.216 123.882 130.957C123.882 130.697 124.086 130.494 124.345 130.494H127.77L127.993 131.401Z" fill="white"/>
<path d="M135.327 109.104C135.327 109.215 135.327 109.345 135.309 109.456L132.291 133.531C131.088 133.66 129.847 133.735 128.551 133.735L130.032 108.938C130.125 107.549 131.273 106.456 132.68 106.456C134.161 106.456 135.327 107.66 135.327 109.104Z" fill="#FE5244"/>
<path d="M47.4378 325.795C47.4378 325.795 24.2018 295.942 27.8863 286.72C31.0338 278.849 38.199 286.183 38.199 286.183L47.4378 325.795Z" fill="#3FB1B5"/>
<path d="M64.5286 357.24C64.5286 357.24 88.7273 330.573 88.1719 320.98C87.6164 311.387 78.859 315.887 78.859 315.887L64.5286 357.24Z" fill="#3FB1B5"/>
<path d="M89.7819 380.704C89.7819 388.741 86.3752 396.075 80.7838 401.667C76.2847 406.149 70.1748 408.631 63.8243 408.631H44.1061C37.7555 408.631 31.6457 406.149 27.1466 401.667C21.5551 396.093 18.1484 388.741 18.1484 380.704C18.1484 369.259 25.0359 359.24 35.3671 353.685H72.5818C82.8945 359.222 89.7819 369.259 89.7819 380.704Z" fill="#FFCF2D"/>
<path d="M53.9753 359.944C64.4972 359.944 73.0269 357.68 73.0269 354.888C73.0269 352.096 64.4972 349.833 53.9753 349.833C43.4533 349.833 34.9236 352.096 34.9236 354.888C34.9236 357.68 43.4533 359.944 53.9753 359.944Z" fill="#3FB1B5"/>
<path d="M64.5278 357.24C61.5099 357.777 57.881 358.092 53.9744 358.092C50.2714 358.092 46.8092 357.814 43.9024 357.333C37.0149 350.018 20.2405 330.61 26.443 321.017C34.1821 309.035 47.4572 325.814 47.4572 325.814C47.4572 325.814 31.7937 277.701 40.0883 267.016C48.3829 256.33 54.8816 275.312 54.8816 275.312C54.8816 275.312 59.0659 252.275 70.3044 254.478C81.0244 256.589 64.4167 310.017 62.8615 314.943C63.6576 312.572 68.4714 299.498 77.8584 300.702C86.7455 301.831 69.4157 345.37 64.5278 357.24Z" fill="white" stroke="#3FB1B5" stroke-width="1.19608" stroke-miterlimit="10" stroke-linecap="round"/>
<path d="M70.2888 254.46C70.2888 254.46 54.4402 298.424 53.9773 358.092" stroke="#3FB1B5" stroke-width="1.19608" stroke-miterlimit="10" stroke-linecap="round"/>
<path d="M54.8652 275.294C55.7169 280.071 58.957 301.35 57.3092 312.221" stroke="#3FB1B5" stroke-width="1.19608" stroke-miterlimit="10" stroke-linecap="round"/>
<path d="M77.8397 300.683C77.8397 300.683 59.7693 323.943 57.7512 357.981" stroke="#3FB1B5" stroke-width="1.19608" stroke-miterlimit="10" stroke-linecap="round"/>
<path d="M28.2021 318.813C28.2021 318.813 49.7903 332.499 50.1606 357.999" stroke="#3FB1B5" stroke-width="1.19608" stroke-miterlimit="10" stroke-linecap="round"/>
<path d="M35.7736 312.35C37.8596 312.35 39.5506 310.659 39.5506 308.572C39.5506 306.486 37.8596 304.794 35.7736 304.794C33.6876 304.794 31.9966 306.486 31.9966 308.572C31.9966 310.659 33.6876 312.35 35.7736 312.35Z" stroke="#FFCF2D" stroke-width="1.19608" stroke-miterlimit="10"/>
<path d="M27.0336 306.646C27.9948 306.646 28.774 305.867 28.774 304.905C28.774 303.944 27.9948 303.165 27.0336 303.165C26.0724 303.165 25.2932 303.944 25.2932 304.905C25.2932 305.867 26.0724 306.646 27.0336 306.646Z" stroke="#FFCF2D" stroke-width="1.19608" stroke-miterlimit="10"/>
<path d="M29.537 350.425C30.4982 350.425 31.2774 349.646 31.2774 348.684C31.2774 347.723 30.4982 346.944 29.537 346.944C28.5758 346.944 27.7966 347.723 27.7966 348.684C27.7966 349.646 28.5758 350.425 29.537 350.425Z" stroke="#FFCF2D" stroke-width="1.19608" stroke-miterlimit="10"/>
<path d="M75.8588 296.646C77.9448 296.646 79.6358 294.955 79.6358 292.868C79.6358 290.782 77.9448 289.09 75.8588 289.09C73.7728 289.09 72.0818 290.782 72.0818 292.868C72.0818 294.955 73.7728 296.646 75.8588 296.646Z" stroke="#FFCF2D" stroke-width="1.19608" stroke-miterlimit="10"/>
<path d="M76.9708 282.683C77.932 282.683 78.7112 281.903 78.7112 280.942C78.7112 279.981 77.932 279.201 76.9708 279.201C76.0096 279.201 75.2305 279.981 75.2305 280.942C75.2305 281.903 76.0096 282.683 76.9708 282.683Z" stroke="#FFCF2D" stroke-width="1.19608" stroke-miterlimit="10"/>
<path d="M83.2838 296.646C84.245 296.646 85.0242 295.867 85.0242 294.905C85.0242 293.944 84.245 293.165 83.2838 293.165C82.3227 293.165 81.5435 293.944 81.5435 294.905C81.5435 295.867 82.3227 296.646 83.2838 296.646Z" stroke="#FFCF2D" stroke-width="1.19608" stroke-miterlimit="10"/>
<path d="M156.736 61.3379H138.403V172.025H156.736V61.3379Z" fill="#EFC13F"/>
<path d="M138.4 61.3379H137.289V172.025H138.4V61.3379Z" fill="#EFC13F"/>
<path d="M156.736 61.3379H138.403V72.2672H156.736V61.3379Z" fill="#F5A82B"/>
<path d="M156.736 86.1582H138.403V147.202H156.736V86.1582Z" fill="#F5A82B"/>
<path d="M147.567 126.619C150.102 126.619 152.157 122.17 152.157 116.682C152.157 111.193 150.102 106.745 147.567 106.745C145.032 106.745 142.976 111.193 142.976 116.682C142.976 122.17 145.032 126.619 147.567 126.619Z" fill="#EFC13F"/>
<path d="M156.736 77.5708H138.403V80.7679H156.736V77.5708Z" fill="#F5A82B"/>
<path d="M138.401 172.025H156.734V161.096H138.401V172.025Z" fill="#F5A82B"/>
<path d="M138.401 155.789H156.734V152.592H138.401V155.789Z" fill="#F5A82B"/>
<path d="M112.666 62.3508H95.2834V173.038H112.666V62.3508Z" fill="#B85742"/>
<path d="M113.812 174.209C113.181 174.209 112.668 173.697 112.668 173.065V62.2824C112.668 61.6507 113.181 61.1382 113.812 61.1382C114.444 61.1382 114.956 61.6507 114.956 62.2824V173.065C114.956 173.697 114.444 174.209 113.812 174.209Z" fill="#B85742"/>
<path d="M94.0807 174.21C93.4164 174.21 92.8772 173.67 92.8772 173.006V62.3454C92.8772 61.6809 93.4164 61.1416 94.0807 61.1416C94.745 61.1416 95.2842 61.6809 95.2842 62.3454V173.006C95.2842 173.67 94.745 174.21 94.0807 174.21Z" fill="#B85742"/>
<path d="M112.666 62.3508H95.2834V73.2801H112.666V62.3508Z" fill="#D9674D"/>
<path d="M112.666 87.1742H95.2834V148.218H112.666V87.1742Z" fill="#D9674D"/>
<path d="M103.976 127.632C106.379 127.632 108.328 123.183 108.328 117.695C108.328 112.207 106.379 107.758 103.976 107.758C101.572 107.758 99.6233 112.207 99.6233 117.695C99.6233 123.183 101.572 127.632 103.976 127.632Z" fill="#B85742"/>
<path d="M112.666 78.5869H95.2834V81.7841H112.666V78.5869Z" fill="#D9674D"/>
<path d="M95.2863 173.038H112.668V162.109H95.2863V173.038Z" fill="#D9674D"/>
<path d="M95.2863 156.805H112.668V153.608H95.2863V156.805Z" fill="#D9674D"/>
<path d="M120.474 174.71L117.375 67.1006L114.73 67.1768L117.829 174.786L120.474 174.71Z" fill="#7FA7F3"/>
<path d="M137.181 174.23L134.082 66.6211L131.437 66.6973L134.536 174.307L137.181 174.23Z" fill="#7FA7F3"/>
<path d="M134.09 67.0767C133.935 61.7342 129.481 57.524 124.137 57.6789C118.796 57.8339 114.587 62.2884 114.741 67.6339" fill="#7FA7F3"/>
<path d="M131.442 67.1542C131.331 63.2718 128.093 60.2147 124.212 60.3249C120.33 60.4352 117.274 63.674 117.384 67.5565" fill="#292B41"/>
<path d="M117.371 67.5404L120.339 170.605L134.397 170.2L131.428 67.1353L117.371 67.5404Z" fill="white"/>
<path d="M124.291 170.509L122.787 118.094" stroke="#949494" stroke-width="0.327155" stroke-miterlimit="10"/>
<path d="M124.415 67.3569C124.489 69.4367 125.103 91.3578 125.103 91.3578" stroke="#949494" stroke-width="0.327155" stroke-miterlimit="10"/>
<path d="M127.203 67.2764C127.277 69.3561 127.575 80.2109 127.575 80.2109" stroke="#949494" stroke-width="0.327155" stroke-miterlimit="10"/>
<path d="M130.801 157.577C130.876 159.657 131.168 170.342 131.168 170.342" stroke="#949494" stroke-width="0.327155" stroke-miterlimit="10"/>
<path d="M127.549 164.24C127.624 166.319 127.728 170.44 127.728 170.44" stroke="#949494" stroke-width="0.327155" stroke-miterlimit="10"/>
<path d="M128.574 149.16L127.41 108.541" stroke="#949494" stroke-width="0.327155" stroke-miterlimit="10"/>
<path d="M220.877 163.538H301.308V161.082H220.877V163.538Z" fill="#7FA7F3"/>
<path d="M178.626 154.92H275.269V151.968H178.626V154.92Z" fill="#7FA7F3"/>
<path d="M213.83 163.55H220.88V161.094H213.83V163.55Z" fill="#5782D0"/>
<path d="M170.16 154.934H178.631V151.982H170.16V154.934Z" fill="#5782D0"/>
<path d="M274.748 151.975C280.707 151.975 285.536 156.806 285.536 162.766C285.536 168.727 280.707 173.557 274.748 173.557" fill="#7FA7F3"/>
<path d="M274.748 154.92C279.073 154.92 282.586 158.433 282.586 162.759C282.586 167.085 279.073 170.598 274.748 170.598" fill="#292B41"/>
<path d="M181.189 154.92H172.402V170.598H181.189V154.92Z" fill="#E9EBF4"/>
<path d="M274.747 154.92H181.221V170.598H274.747V154.92Z" fill="white"/>
<path d="M277.058 131.056H180.416V134.007H277.058V131.056Z" fill="#D9674D"/>
<path d="M277.058 149.686H180.416V152.638H277.058V149.686Z" fill="#D9674D"/>
<path d="M285.537 131.056H277.059V134.007H285.537V131.056Z" fill="#B85742"/>
<path d="M285.537 149.686H277.059V152.638H285.537V149.686Z" fill="#B85742"/>
<path d="M180.949 152.638C174.99 152.638 170.16 147.807 170.16 141.847C170.16 135.886 174.99 131.056 180.949 131.056" fill="#D9674D"/>
<path d="M180.947 149.686C176.622 149.686 173.11 146.173 173.11 141.847C173.11 137.52 176.615 134.007 180.947 134.007" fill="#292B41"/>
<path d="M274.505 149.693H283.293V134.015H274.505V149.693Z" fill="#E9EBF4"/>
<path d="M180.95 149.686H274.476V134.007H180.95V149.686Z" fill="white"/>
<path d="M271.645 113.807H194.378V116.169H271.645V113.807Z" fill="#EFC13F"/>
<path d="M271.645 128.694H194.378V131.055H271.645V128.694Z" fill="#EFC13F"/>
<path d="M278.418 113.807H271.646V116.169H278.418V113.807Z" fill="#F5A82B"/>
<path d="M278.418 128.694H271.646V131.055H278.418V128.694Z" fill="#F5A82B"/>
<path d="M194.802 131.056C190.038 131.056 186.18 127.197 186.18 122.431C186.18 117.666 190.038 113.807 194.802 113.807" fill="#EFC13F"/>
<path d="M194.803 128.694C191.341 128.694 188.534 125.887 188.534 122.424C188.534 118.962 191.341 116.154 194.803 116.154" fill="#292B41"/>
<path d="M269.611 128.702H276.635V116.169H269.611V128.702Z" fill="#E9EBF4"/>
<path d="M194.793 128.702H269.571V116.169L194.793 116.169V128.702Z" fill="white"/>
<path d="M189.403 113.8L266.67 113.8V111.439L189.403 111.439V113.8Z" fill="#B85742"/>
<path d="M189.403 98.9132L266.67 98.9132V96.552L189.403 96.552V98.9132Z" fill="#B85742"/>
<path d="M182.621 113.815H189.393V111.453H182.621V113.815Z" fill="#B85742"/>
<path d="M182.621 98.9277H189.393V96.5665H182.621V98.9277Z" fill="#B85742"/>
<path d="M266.248 96.5521C271.012 96.5521 274.87 100.411 274.87 105.176C274.87 109.942 271.012 113.8 266.248 113.8" fill="#B85742"/>
<path d="M266.248 98.9132C269.709 98.9132 272.516 101.721 272.516 105.183C272.516 108.646 269.709 111.453 266.248 111.453" fill="#292B41"/>
<path d="M191.433 98.9132H184.408V111.446H191.433V98.9132Z" fill="#E9EBF4"/>
<path d="M266.244 98.9132H191.466V111.446H266.244V98.9132Z" fill="white"/>
<path d="M198.207 140.169H209.47V151.162L203.842 147.123L198.207 151.025V140.169Z" fill="#7FA7F3"/>
<path d="M249.013 104.197H256.282V111.281L252.648 108.682L249.013 111.194V104.197Z" fill="#EFC13F"/>
<path d="M174.446 111.373L271.088 111.373V108.421L174.446 108.421V111.373Z" fill="#7FA7F3"/>
<path d="M174.446 92.7428L271.088 92.7428V89.7913L174.446 89.7913V92.7428Z" fill="#7FA7F3"/>
<path d="M165.976 111.387H174.447V108.436H165.976V111.387Z" fill="#5782D0"/>
<path d="M165.976 92.757H174.447V89.8055H165.976V92.757Z" fill="#5782D0"/>
<path d="M270.565 89.7982C276.524 89.7982 281.353 94.6286 281.353 100.589C281.353 106.55 276.524 111.38 270.565 111.38" fill="#7FA7F3"/>
<path d="M270.565 92.7426C274.89 92.7426 278.403 96.2555 278.403 100.582C278.403 104.908 274.89 108.421 270.565 108.421" fill="#292B41"/>
<path d="M177.005 92.7426H168.218V108.421H177.005V92.7426Z" fill="#E9EBF4"/>
<path d="M270.565 92.7426H177.039V108.421H270.565V92.7426Z" fill="white"/>
<path d="M272.874 68.8787H176.232V71.8302H272.874V68.8787Z" fill="#D9674D"/>
<path d="M272.874 87.5092H176.232V90.4607H272.874V87.5092Z" fill="#D9674D"/>
<path d="M281.353 68.8787H272.875V71.8302H281.353V68.8787Z" fill="#B85742"/>
<path d="M281.353 87.5092H272.875V90.4607H281.353V87.5092Z" fill="#B85742"/>
<path d="M176.765 90.4605C170.806 90.4605 165.977 85.6302 165.977 79.6696C165.977 73.7091 170.806 68.8787 176.765 68.8787" fill="#D9674D"/>
<path d="M176.764 87.5091C172.438 87.5091 168.926 83.9962 168.926 79.6698C168.926 75.3433 172.431 71.8303 176.764 71.8303" fill="#292B41"/>
<path d="M270.322 87.5162H279.109V71.8374H270.322V87.5162Z" fill="#E9EBF4"/>
<path d="M176.767 87.5092L270.292 87.5092V71.8303L176.767 71.8303V87.5092Z" fill="white"/>
<path d="M267.462 51.6304H190.194V53.9915H267.462V51.6304Z" fill="#EFC13F"/>
<path d="M267.462 66.5173H190.194V68.8785H267.462V66.5173Z" fill="#EFC13F"/>
<path d="M274.235 51.6304H267.462V53.9915H274.235V51.6304Z" fill="#F5A82B"/>
<path d="M274.235 66.5173H267.462V68.8785H274.235V66.5173Z" fill="#F5A82B"/>
<path d="M190.619 68.8785C185.854 68.8785 181.996 65.02 181.996 60.2544C181.996 55.4889 185.854 51.6304 190.619 51.6304" fill="#EFC13F"/>
<path d="M190.619 66.5172C187.157 66.5172 184.35 63.7097 184.35 60.2471C184.35 56.7845 187.157 53.9771 190.619 53.9771" fill="#292B41"/>
<path d="M265.427 66.5247H272.451V53.9916H265.427V66.5247Z" fill="#E9EBF4"/>
<path d="M190.61 66.5247L265.387 66.5247V53.9916L190.61 53.9916V66.5247Z" fill="white"/>
<path d="M194.02 77.9922H205.283V88.9847L199.655 84.9461L194.02 88.8479V77.9922Z" fill="#7FA7F3"/>
<path d="M409.888 169.269H316.677V148.512C316.677 146.466 318.328 144.814 320.373 144.814H406.216C408.262 144.814 409.913 146.466 409.913 148.512V169.269H409.888Z" fill="white" stroke="#9A3B82" stroke-width="1.59218" stroke-miterlimit="10" stroke-linecap="round"/>
<path d="M417.33 143.828H337.008C335.751 143.828 334.766 142.817 334.766 141.584V133.326C334.766 132.069 335.776 131.083 337.008 131.083H417.33C418.587 131.083 419.573 132.093 419.573 133.326V141.584C419.573 142.817 418.563 143.828 417.33 143.828Z" fill="#FFCF2D"/>
<path d="M420.459 123.342H325.177V131.083H420.459V123.342Z" fill="#FE5244"/>
<path d="M418.731 123.342H346C345.039 123.342 344.275 122.553 344.275 121.617V115.38C344.275 114.418 345.063 113.654 346 113.654H418.731C419.692 113.654 420.456 114.443 420.456 115.38V121.617C420.456 122.553 419.692 123.342 418.731 123.342Z" fill="white" stroke="#9A3B82" stroke-width="1.59218" stroke-miterlimit="10" stroke-linecap="round"/>
<path d="M533.811 155.598H439.12V167.776H533.811V155.598Z" stroke="#9A3B82" stroke-width="1.59218" stroke-miterlimit="10" stroke-linecap="round"/>
<path d="M559.073 146.28H439.12V156.091H559.073V146.28Z" fill="#FE5244"/>
<path d="M520.083 132.13H439.12V146.034H520.083V132.13Z" fill="#FFCF2D"/>
<path d="M533.811 121.505H439.12V131.883H533.811V121.505Z" stroke="#9A3B82" stroke-width="1.59218" stroke-miterlimit="10" stroke-linecap="round"/>
<path d="M499.457 105.406C495.784 106.442 491.89 107.009 487.898 107.009C464.558 107.009 445.654 88.1006 445.654 64.7552C445.654 45.5021 458.544 29.2319 476.166 24.1536L499.457 105.406Z" stroke="#FFCF2D" stroke-width="1.59218" stroke-miterlimit="10"/>
<path d="M487.898 107.008V122.071" stroke="#FFCF2D" stroke-width="1.59218" stroke-miterlimit="10"/>
<path d="M487.896 100.55C507.661 100.55 523.683 84.5243 523.683 64.7555C523.683 44.9867 507.661 28.9609 487.896 28.9609C468.132 28.9609 452.11 44.9867 452.11 64.7555C452.11 84.5243 468.132 100.55 487.896 100.55Z" fill="white" stroke="#3FB1B5" stroke-width="1.59218" stroke-miterlimit="10"/>
<path d="M502.856 121.973H473.059L487.846 114.553L502.856 121.973Z" fill="white" stroke="#FFCF2D" stroke-width="1.59218" stroke-miterlimit="10"/>
<path d="M438.628 53.909L438.48 54.3527L417.752 113.912H321.385L342.113 54.3527L342.778 52.4545C345.884 47.9925 354.485 44.7385 364.738 44.5659C364.911 44.5659 365.059 44.5659 365.231 44.5659C365.404 44.5659 365.551 44.5659 365.724 44.5659C377.702 44.5659 388.374 48.7321 390.321 54.2048C392.243 48.7321 402.447 44.5659 414.425 44.5659C426.157 44.5659 436.434 48.5842 438.628 53.909Z" fill="white" stroke="#FFCF2D" stroke-width="1.59218" stroke-miterlimit="10"/>
<path d="M390.297 54.2048L369.373 112.679" stroke="#FFCF2D" stroke-width="1.59218" stroke-miterlimit="10" stroke-linecap="round"/>
<path d="M369.322 113.172H321.385C323.16 107.625 333.117 103.36 345.095 103.36C357.123 103.36 367.548 107.625 369.322 113.172Z" fill="#FFCF2D"/>
<path d="M417.628 113.172H369.691C371.465 107.625 381.422 103.36 393.4 103.36C405.428 103.36 415.853 107.625 417.628 113.172Z" fill="#FFCF2D"/>
<path d="M632.591 394.321C632.591 398.445 631.832 402.405 630.437 406.077C628.406 411.412 623.258 414.899 617.535 414.899H574.112C568.41 414.899 563.241 411.412 561.23 406.077C559.836 402.405 559.077 398.445 559.077 394.321C559.077 382.422 565.374 371.917 574.994 365.639V358.705C574.994 361.741 584.327 364.203 595.813 364.203C607.32 364.203 616.633 361.741 616.633 358.705V365.66C626.294 371.917 632.591 382.422 632.591 394.321Z" fill="#FE5244"/>
<path d="M616.674 363.752V365.598C613.372 368.225 604.388 369.62 595.855 369.62C587.322 369.62 578.338 368.225 575.035 365.598V363.752C575.425 364.634 577.086 365.783 580.778 366.747C584.799 367.814 590.152 368.389 595.855 368.389C601.557 368.389 606.911 367.814 610.931 366.747C614.623 365.763 616.264 364.614 616.674 363.752Z" fill="white"/>
<path d="M616.674 358.704C616.674 361.741 607.341 364.203 595.855 364.203C584.368 364.203 575.035 361.741 575.035 358.704C575.035 358.314 575.179 357.945 575.466 357.576C577.435 355.093 585.804 353.206 595.855 353.206C605.905 353.206 614.274 355.073 616.243 357.576C616.51 357.945 616.674 358.314 616.674 358.704Z" fill="#66B0F0"/>
<path d="M567.981 385.602C569.431 385.602 570.607 384.426 570.607 382.976C570.607 381.525 569.431 380.35 567.981 380.35C566.531 380.35 565.356 381.525 565.356 382.976C565.356 384.426 566.531 385.602 567.981 385.602Z" stroke="#FFCF2D" stroke-width="1.32509" stroke-miterlimit="10"/>
<path d="M576.884 392.064C578.334 392.064 579.51 390.888 579.51 389.438C579.51 387.988 578.334 386.812 576.884 386.812C575.434 386.812 574.259 387.988 574.259 389.438C574.259 390.888 575.434 392.064 576.884 392.064Z" stroke="#FFCF2D" stroke-width="1.32509" stroke-miterlimit="10"/>
<path d="M587.959 384.391C589.409 384.391 590.584 383.215 590.584 381.765C590.584 380.314 589.409 379.139 587.959 379.139C586.509 379.139 585.333 380.314 585.333 381.765C585.333 383.215 586.509 384.391 587.959 384.391Z" stroke="#FFCF2D" stroke-width="1.32509" stroke-miterlimit="10"/>
<path d="M586.4 401.831C587.85 401.831 589.025 400.655 589.025 399.205C589.025 397.754 587.85 396.578 586.4 396.578C584.95 396.578 583.774 397.754 583.774 399.205C583.774 400.655 584.95 401.831 586.4 401.831Z" stroke="#FFCF2D" stroke-width="1.32509" stroke-miterlimit="10"/>
<path d="M576.553 409.483C578.003 409.483 579.178 408.307 579.178 406.856C579.178 405.406 578.003 404.23 576.553 404.23C575.102 404.23 573.927 405.406 573.927 406.856C573.927 408.307 575.102 409.483 576.553 409.483Z" stroke="#FFCF2D" stroke-width="1.32509" stroke-miterlimit="10"/>
<path d="M566.626 401.831C568.076 401.831 569.252 400.655 569.252 399.205C569.252 397.754 568.076 396.578 566.626 396.578C565.176 396.578 564.001 397.754 564.001 399.205C564.001 400.655 565.176 401.831 566.626 401.831Z" stroke="#FFCF2D" stroke-width="1.32509" stroke-miterlimit="10"/>
<path d="M578.318 375.856C579.768 375.856 580.944 374.68 580.944 373.23C580.944 371.78 579.768 370.604 578.318 370.604C576.868 370.604 575.693 371.78 575.693 373.23C575.693 374.68 576.868 375.856 578.318 375.856Z" stroke="#FFCF2D" stroke-width="1.32509" stroke-miterlimit="10"/>
<path d="M599.22 377.847C600.67 377.847 601.845 376.671 601.845 375.22C601.845 373.77 600.67 372.594 599.22 372.594C597.769 372.594 596.594 373.77 596.594 375.22C596.594 376.671 597.769 377.847 599.22 377.847Z" stroke="#FFCF2D" stroke-width="1.32509" stroke-miterlimit="10"/>
<path d="M597.025 393.767C598.475 393.767 599.65 392.591 599.65 391.141C599.65 389.69 598.475 388.514 597.025 388.514C595.575 388.514 594.399 389.69 594.399 391.141C594.399 392.591 595.575 393.767 597.025 393.767Z" stroke="#FFCF2D" stroke-width="1.32509" stroke-miterlimit="10"/>
<path d="M604.616 404.23C606.066 404.23 607.242 403.054 607.242 401.604C607.242 400.153 606.066 398.978 604.616 398.978C603.166 398.978 601.991 400.153 601.991 401.604C601.991 403.054 603.166 404.23 604.616 404.23Z" stroke="#FFCF2D" stroke-width="1.32509" stroke-miterlimit="10"/>
<path d="M594.769 412.109C596.219 412.109 597.395 410.933 597.395 409.483C597.395 408.032 596.219 406.857 594.769 406.857C593.319 406.857 592.144 408.032 592.144 409.483C592.144 410.933 593.319 412.109 594.769 412.109Z" stroke="#FFCF2D" stroke-width="1.32509" stroke-miterlimit="10"/>
<path d="M607.426 387.489C608.876 387.489 610.051 386.313 610.051 384.863C610.051 383.413 608.876 382.237 607.426 382.237C605.976 382.237 604.8 383.413 604.8 384.863C604.8 386.313 605.976 387.489 607.426 387.489Z" stroke="#FFCF2D" stroke-width="1.32509" stroke-miterlimit="10"/>
<path d="M615.033 376.719C616.483 376.719 617.658 375.543 617.658 374.092C617.658 372.642 616.483 371.466 615.033 371.466C613.583 371.466 612.407 372.642 612.407 374.092C612.407 375.543 613.583 376.719 615.033 376.719Z" stroke="#FFCF2D" stroke-width="1.32509" stroke-miterlimit="10"/>
<path d="M623.69 385.437C625.14 385.437 626.316 384.262 626.316 382.811C626.316 381.361 625.14 380.185 623.69 380.185C622.24 380.185 621.065 381.361 621.065 382.811C621.065 384.262 622.24 385.437 623.69 385.437Z" stroke="#FFCF2D" stroke-width="1.32509" stroke-miterlimit="10"/>
<path d="M613.782 394.033C615.232 394.033 616.408 392.858 616.408 391.407C616.408 389.957 615.232 388.781 613.782 388.781C612.332 388.781 611.156 389.957 611.156 391.407C611.156 392.858 612.332 394.033 613.782 394.033Z" stroke="#FFCF2D" stroke-width="1.32509" stroke-miterlimit="10"/>
<path d="M625.64 399.532C627.09 399.532 628.265 398.357 628.265 396.906C628.265 395.456 627.09 394.28 625.64 394.28C624.19 394.28 623.014 395.456 623.014 396.906C623.014 398.357 624.19 399.532 625.64 399.532Z" stroke="#FFCF2D" stroke-width="1.32509" stroke-miterlimit="10"/>
<path d="M617.661 409.627C619.111 409.627 620.286 408.451 620.286 407.001C620.286 405.55 619.111 404.375 617.661 404.375C616.211 404.375 615.035 405.55 615.035 407.001C615.035 408.451 616.211 409.627 617.661 409.627Z" stroke="#FFCF2D" stroke-width="1.32509" stroke-miterlimit="10"/>
<path d="M641.843 326.74C641.843 326.74 661.329 316.215 664.549 334.598C668.283 355.833 642.93 374.523 642.93 374.523C642.93 374.523 637.474 361.003 622.849 349.349C610.193 339.276 620.695 312.563 641.843 326.74Z" fill="white" stroke="#FFCF2D" stroke-width="1.32509" stroke-miterlimit="10"/>
<path d="M603.59 303.332C612.841 303.414 626.132 284.621 613.579 264.001C598.421 239.094 595.816 224.671 595.816 224.671C595.816 224.671 573.52 254.174 577.314 276.804C581.478 301.588 603.59 303.332 603.59 303.332Z" fill="#FFCF2D"/>
<path d="M605.188 290.816C618.706 294.386 631.546 286.159 631.813 267.407C632.284 234.252 638.561 223.46 638.561 223.46C638.561 223.46 596.45 238.622 590.071 262.175C584 284.62 605.188 290.816 605.188 290.816Z" fill="white" stroke="#FFCF2D" stroke-width="1.32509" stroke-miterlimit="10"/>
<path d="M548.7 312.646C548.207 312.687 547.694 312.728 547.141 312.769C518.055 314.944 509.686 341.574 509.686 341.574C509.686 341.574 507.902 339.646 508.271 332.978C508.968 315.785 524.783 298.018 542.833 309.302C544.843 310.574 546.812 311.661 548.7 312.646Z" fill="#FFCF2D"/>
<path d="M581.683 319.191C576.555 319.519 564.843 320.934 548.7 312.646C546.813 311.682 544.844 310.574 542.834 309.302C524.783 298.017 509.379 315.785 508.682 332.978C508.641 333.819 508.846 334.66 508.887 335.481C507.184 320.545 507.225 283.369 552.413 284.62C583.468 285.523 581.683 319.191 581.683 319.191Z" fill="white" stroke="#FFCF2D" stroke-width="1.32509" stroke-miterlimit="10"/>
<path d="M589.068 357.618C589.068 357.618 594.422 283 522.076 292.745" stroke="#FFCF2D" stroke-width="1.32509" stroke-miterlimit="10"/>
<path d="M638.562 223.46C592.985 270.033 601.476 357.618 601.476 357.618C596.677 324.114 626.132 290.816 641.823 325.858C646.5 336.281 642.91 374.503 642.91 374.503" stroke="#FFCF2D" stroke-width="1.32509" stroke-miterlimit="10"/>
</g>
<defs>
<clipPath id="clip0_1_4917">
<rect width="665" height="443" fill="white"/>
</clipPath>
</defs>
</svg>
